<svg xmlns="http://www.w3.org/2000/svg" width="33.295" height="28" viewBox="0 0 33.295 28">
  <path id="Union_1" data-name="Union 1" d="M4.077,23.962A13.47,13.47,0,0,1,0,14,13.471,13.471,0,0,1,4.077,4.038,13.571,13.571,0,0,1,14,0a13.573,13.573,0,0,1,9.923,4.038A13.431,13.431,0,0,1,27.193,9.1V.338h6.1V27.1h-6.1V18.9a13.432,13.432,0,0,1-3.27,5.064A13.573,13.573,0,0,1,14,28,13.571,13.571,0,0,1,4.077,23.962ZM8.4,8.231A7.775,7.775,0,0,0,6.153,14,7.772,7.772,0,0,0,8.4,19.769,7.63,7.63,0,0,0,14,22a7.627,7.627,0,0,0,5.6-2.23A7.769,7.769,0,0,0,21.846,14a7.772,7.772,0,0,0-2.25-5.77A7.631,7.631,0,0,0,14,6,7.633,7.633,0,0,0,8.4,8.231Z" fill="#707070;"/>
</svg>
