<svg width="17" height="16" viewBox="0 0 17 16" fill="none" xmlns="http://www.w3.org/2000/svg">
<path d="M15.6188 7.0501L8.95212 0.383436C8.82532 0.262049 8.67579 0.166895 8.51212 0.103436C8.18751 -0.0299214 7.8234 -0.0299214 7.49879 0.103436C7.33512 0.166895 7.18559 0.262049 7.05879 0.383436L0.392122 7.0501C0.267804 7.17442 0.16919 7.32201 0.10191 7.48444C0.0346292 7.64687 0 7.82096 0 7.99677C0 8.35184 0.141051 8.69236 0.392122 8.94344C0.643194 9.19451 0.98372 9.33556 1.33879 9.33556C1.69386 9.33556 2.03438 9.19451 2.28546 8.94344L6.67212 4.54344V14.6634C6.67212 15.0171 6.8126 15.3562 7.06265 15.6062C7.3127 15.8563 7.65183 15.9968 8.00546 15.9968C8.35908 15.9968 8.69822 15.8563 8.94827 15.6062C9.19831 15.3562 9.33879 15.0171 9.33879 14.6634V4.54344L13.7255 8.94344C13.8494 9.06841 13.9969 9.1676 14.1594 9.23529C14.3218 9.30298 14.4961 9.33783 14.6721 9.33783C14.8481 9.33783 15.0224 9.30298 15.1849 9.23529C15.3474 9.1676 15.4948 9.06841 15.6188 8.94344C15.7438 8.81949 15.843 8.67202 15.9106 8.50954C15.9783 8.34706 16.0132 8.17279 16.0132 7.99677C16.0132 7.82075 15.9783 7.64648 15.9106 7.484C15.843 7.32152 15.7438 7.17405 15.6188 7.0501Z" fill="white"/>
</svg>
