<svg width="48" height="48" viewBox="0 0 48 48" fill="none" xmlns="http://www.w3.org/2000/svg">
<g clip-path="url(#clip0_3483_68354)">
<path d="M15.4759 15.6875H9.04688C8.63266 15.6875 8.29688 16.0233 8.29688 16.4375V33.6365C8.29688 34.0507 8.63266 34.3865 9.04688 34.3865H15.4759C15.8901 34.3865 16.2259 34.0507 16.2259 33.6365V16.4375C16.2259 16.0233 15.8901 15.6875 15.4759 15.6875Z" fill="#5E35B1"/>
<path d="M27.2962 24.8906H20.8672C20.453 24.8906 20.1172 25.2264 20.1172 25.6406V33.6356C20.1172 34.0498 20.453 34.3856 20.8672 34.3856H27.2962C27.7104 34.3856 28.0462 34.0498 28.0462 33.6356V25.6406C28.0462 25.2264 27.7104 24.8906 27.2962 24.8906Z" fill="#5E35B1"/>
<path d="M39.0774 7.9375H32.6484C32.2342 7.9375 31.8984 8.27329 31.8984 8.6875V33.6365C31.8984 34.0507 32.2342 34.3865 32.6484 34.3865H39.0774C39.4917 34.3865 39.8274 34.0507 39.8274 33.6365V8.6875C39.8274 8.27329 39.4917 7.9375 39.0774 7.9375Z" fill="#5E35B1"/>
<path d="M38.4459 40.0708H9.55493C9.16533 40.0708 8.79167 39.916 8.51617 39.6405C8.24068 39.3651 8.08594 38.9914 8.08594 38.6018C8.0862 38.2123 8.24105 37.8388 8.51648 37.5634C8.79191 37.2879 9.16541 37.1331 9.55493 37.1328H38.4459C38.8354 37.1331 39.2089 37.2879 39.4844 37.5634C39.7598 37.8388 39.9147 38.2123 39.9149 38.6018C39.9149 38.9914 39.7602 39.3651 39.4847 39.6405C39.2092 39.916 38.8355 40.0708 38.4459 40.0708Z" fill="#B39DDB"/>
</g>
<defs>
<clipPath id="clip0_3483_68354">
<rect width="48" height="48" fill="white"/>
</clipPath>
</defs>
</svg>
