<svg width="28" height="28" viewBox="0 0 28 28" fill="#8C76C6" xmlns="http://www.w3.org/2000/svg">
<path fill-rule="evenodd" clip-rule="evenodd" d="M0 6.3C0 9.7794 2.82061 12.6 6.3 12.6C9.7794 12.6 12.6 9.7794 12.6 6.3C12.6 2.82061 9.7794 0 6.3 0C2.82061 0 0 2.82061 0 6.3ZM9.8 6.3C9.8 8.233 8.233 9.8 6.3 9.8C4.367 9.8 2.8 8.233 2.8 6.3C2.8 4.367 4.367 2.8 6.3 2.8C8.233 2.8 9.8 4.367 9.8 6.3ZM15.4 21.7C15.4 25.1794 18.2206 28 21.7 28C25.1794 28 28 25.1794 28 21.7C28 18.2206 25.1794 15.4 21.7 15.4C18.2206 15.4 15.4 18.2206 15.4 21.7ZM25.2 21.7C25.2 23.633 23.633 25.2 21.7 25.2C19.767 25.2 18.2 23.633 18.2 21.7C18.2 19.767 19.767 18.2 21.7 18.2C23.633 18.2 25.2 19.767 25.2 21.7ZM15.4 0.999999C15.4 0.447714 15.8477 0 16.4 0H17.2C17.7523 0 18.2 0.447715 18.2 1V9.8H27C27.5523 9.8 28 10.2477 28 10.8V11.6C28 12.1523 27.5523 12.6 27 12.6H18.2H15.4V9.8V0.999999ZM20.6 2.8C20.0477 2.8 19.6 3.24771 19.6 3.8V7.4C19.6 7.95228 20.0477 8.4 20.6 8.4H21.4C21.9523 8.4 22.4 7.95229 22.4 7.4V3.8C22.4 3.24772 21.9523 2.8 21.4 2.8H20.6ZM23.8 5.2C23.8 4.64772 24.2477 4.2 24.8 4.2H25.6C26.1523 4.2 26.6 4.64772 26.6 5.2V7.4C26.6 7.95228 26.1523 8.4 25.6 8.4H24.8C24.2477 8.4 23.8 7.95228 23.8 7.4V5.2ZM1 15.4C0.447715 15.4 0 15.8477 0 16.4V25.2V28H2.8H11.6C12.1523 28 12.6 27.5523 12.6 27V26.2C12.6 25.6477 12.1523 25.2 11.6 25.2H2.8V16.4C2.8 15.8477 2.35229 15.4 1.8 15.4H1ZM5.2 16.8C4.64772 16.8 4.2 17.2477 4.2 17.8V18.6C4.2 19.1523 4.64772 19.6 5.2 19.6H7.4C7.95228 19.6 8.4 19.1523 8.4 18.6V17.8C8.4 17.2477 7.95228 16.8 7.4 16.8H5.2ZM4.2 22C4.2 21.4477 4.64772 21 5.2 21H8.8C9.35229 21 9.8 21.4477 9.8 22V22.8C9.8 23.3523 9.35229 23.8 8.8 23.8H5.2C4.64771 23.8 4.2 23.3523 4.2 22.8V22Z"/>
</svg>
