<svg width="48" height="48" viewBox="0 0 48 48" fill="none" xmlns="http://www.w3.org/2000/svg">
<g clip-path="url(#clip0_3483_68343)">
<path opacity="0.995" fill-rule="evenodd" clip-rule="evenodd" d="M27.1584 44.7404L10.5464 40.1985C10.3491 40.1444 10.1751 40.027 10.051 39.8644C9.92684 39.7018 9.85954 39.503 9.85938 39.2985V13.8315C9.85937 13.6879 9.89247 13.5464 9.95611 13.4177C10.0197 13.2891 10.1122 13.1769 10.2263 13.0898C10.3403 13.0027 10.4729 12.9432 10.6138 12.9157C10.7547 12.8882 10.8999 12.8936 11.0384 12.9315L27.6464 17.4755C27.8437 17.5294 28.0179 17.6467 28.142 17.8093C28.2661 17.972 28.3334 18.1709 28.3334 18.3755V43.8405C28.3332 43.9835 28.3001 44.1246 28.2367 44.2529C28.1733 44.3811 28.0813 44.4931 27.9677 44.5801C27.8541 44.6671 27.7221 44.7268 27.5817 44.7546C27.4414 44.7824 27.2965 44.7776 27.1584 44.7404Z" fill="#5E35B1"/>
<path d="M37.2829 3.67917C37.0204 3.47651 36.7143 3.33782 36.3888 3.27412C36.0633 3.21041 35.7275 3.22344 35.4079 3.31217L18.2999 7.97317C17.8439 8.09816 17.4415 8.36933 17.1545 8.74507C16.8675 9.1208 16.7116 9.58034 16.7109 10.0532V11.4102L19.6499 12.2332V10.6512L35.1899 6.41717V30.2452L30.8899 31.4262V34.4742L36.5409 32.9202C36.9968 32.7948 37.399 32.5234 37.6859 32.1475C37.9727 31.7716 38.1284 31.312 38.1289 30.8392V5.39017C38.1304 5.05888 38.0547 4.73179 37.9079 4.43481C37.7611 4.13784 37.5471 3.87913 37.2829 3.67917Z" fill="#B39DDB"/>
</g>
<defs>
<clipPath id="clip0_3483_68343">
<rect width="48.001" height="48" fill="white"/>
</clipPath>
</defs>
</svg>
