<svg width="48" height="48" viewBox="0 0 48 48" fill="none" xmlns="http://www.w3.org/2000/svg">
<g clip-path="url(#clip0_3483_68365)">
<path d="M22.9487 27.3264L8.81873 17.6574C8.56876 17.4864 8.36427 17.257 8.22296 16.9891C8.08166 16.7211 8.00781 16.4228 8.00781 16.1199C8.00781 15.817 8.08166 15.5187 8.22296 15.2508C8.36427 14.9829 8.56876 14.7535 8.81873 14.5824L22.9487 4.91043C23.2581 4.69903 23.624 4.58594 23.9987 4.58594C24.3734 4.58594 24.7394 4.69903 25.0487 4.91043L39.1807 14.5834C39.4307 14.7545 39.6352 14.9839 39.7765 15.2518C39.9178 15.5197 39.9916 15.8181 39.9916 16.1209C39.9916 16.4238 39.9178 16.7222 39.7765 16.9901C39.6352 17.258 39.4307 17.4874 39.1807 17.6584L25.0497 27.3274C24.7398 27.5381 24.3737 27.6507 23.999 27.6505C23.6243 27.6503 23.2584 27.5374 22.9487 27.3264Z" fill="#5E35B1"/>
<path opacity="0.995" d="M39.9896 27.6437L34.2697 23.8047L31.4697 25.7227L37.1396 29.5287L24.0067 38.3427L10.8726 29.5287L16.5427 25.7227L13.7426 23.8047L8.02264 27.6447C7.71294 27.8521 7.45907 28.1325 7.28345 28.4613C7.10782 28.79 7.01582 29.157 7.01562 29.5297C7.01593 29.9025 7.10807 30.2695 7.28387 30.5983C7.45968 30.927 7.71373 31.2074 8.02362 31.4147L22.7307 41.2837C23.1091 41.538 23.5546 41.6741 24.0106 41.6747C24.4665 41.6745 24.912 41.538 25.2897 41.2827L39.9836 31.4157C40.2944 31.2089 40.5492 30.9286 40.7255 30.5995C40.9017 30.2705 40.9938 29.903 40.9937 29.5297C40.9944 29.157 40.9032 28.7899 40.728 28.4609C40.5529 28.1319 40.2992 27.8512 39.9896 27.6437Z" fill="#B39DDB"/>
</g>
<defs>
<clipPath id="clip0_3483_68365">
<rect width="48" height="48" fill="white"/>
</clipPath>
</defs>
</svg>
