<svg xmlns="http://www.w3.org/2000/svg" width="386" height="162" viewBox="0 0 386 162"><defs><style>.a{fill:#e1e7ea;}.b{fill:#aaabae;stroke:rgba(0,0,0,0);stroke-miterlimit:10;}</style></defs><g transform="translate(-104 -522)"><rect class="a" width="386" height="162" transform="translate(104 522)"/><path class="b" d="M-7407.712,410.706V384.762h3.244v22.7h16.215v3.242Zm42.087-.748a11.6,11.6,0,0,1-11.59-11.059,11.463,11.463,0,0,1,9.847-11.74.763.763,0,0,1,.6.193.761.761,0,0,1,.253.575v5.638a4.982,4.982,0,0,0-4.081,3.781,4.983,4.983,0,0,0,1.96,5.206,4.984,4.984,0,0,0,5.561.153l4,4a.76.76,0,0,1,.225.59.751.751,0,0,1-.3.556,11.353,11.353,0,0,1-6.459,2.105Zm9.826-3.151-4.131-4.131a4.976,4.976,0,0,0,2.139-3.415h5.779a.757.757,0,0,1,.577.251.759.759,0,0,1,.193.6,11.423,11.423,0,0,1-3.493,6.729.769.769,0,0,1-.516.2A.767.767,0,0,1-7355.8,406.808Zm-45.426-2.587v-3.244h6.419v3.244Zm0-6.486v-3.244h12.972v3.244Zm47.684-.766h-5.707a4.981,4.981,0,0,0-4.982-4.981v-5.706a.77.77,0,0,1,.24-.558.771.771,0,0,1,.567-.214,11.5,11.5,0,0,1,10.657,10.656.783.783,0,0,1-.215.569.777.777,0,0,1-.553.234Zm-47.684-5.719v-3.244h6.419v3.244Zm1.849-11.749a11.628,11.628,0,0,1-11.618-11.08,11.48,11.48,0,0,1,9.862-11.761.769.769,0,0,1,.6.193.759.759,0,0,1,.253.575V368.79l7.464,7.455a.755.755,0,0,1,.229.593.761.761,0,0,1-.3.558,11.4,11.4,0,0,1-6.474,2.1Zm22.195-2.52V357.521h3.242v16.215h22.7v3.244Zm-12.348-.632-7.563-7.563h11.357a.771.771,0,0,1,.575.253.771.771,0,0,1,.191.6,11.465,11.465,0,0,1-3.5,6.742.763.763,0,0,1-.513.2A.768.768,0,0,1-7389.529,376.347Zm31.805-5.855v-6.419h3.244v6.419Zm-6.486,0V357.521h3.244v12.971Zm-6.485,0v-6.419h3.244v6.419Zm-16.572-4h-10.71V355.778a.775.775,0,0,1,.234-.56.78.78,0,0,1,.569-.218,11.519,11.519,0,0,1,10.682,10.684.771.771,0,0,1-.214.569.78.78,0,0,1-.558.236Z" transform="translate(7678.119 220.147)"/></g></svg>