<svg width="20" height="20" viewBox="0 0 20 20" fill="#B5B5BA" xmlns="http://www.w3.org/2000/svg">
<path fill-rule="evenodd" clip-rule="evenodd" d="M8.88988 17C8.88988 17 11.4595 17 12.0052 17.0019C12.7773 17.0046 13.7801 16.9079 14.3046 16.54C14.829 16.1722 15.2427 15.6807 15.5456 15.0654C15.8485 14.4502 16 13.8171 16 13.166C16 12.3392 15.7655 11.6198 15.2964 11.0078C14.8274 10.3958 14.1564 9.96289 13.2834 9.70898C13.9023 9.42904 14.3925 9.00911 14.7541 8.44922C15.1156 7.88932 15.2964 7.27409 15.2964 6.60352C15.2964 5.98503 15.1498 5.42676 14.8567 4.92871C14.5635 4.43066 14.1971 4.0319 13.7573 3.73242C13.3176 3.43294 12.8192 3.236 12.2622 3.1416C11.7052 3.0472 10.8599 3 9.72638 3H4L4.01366 17H8.88988ZM9.04078 8.69307L6.89251 8.69336V5.38281L8.81889 5.38303C10.0228 5.38506 10.7585 5.40126 11.0261 5.43164C11.5081 5.49023 11.8713 5.65788 12.1156 5.93457C12.3599 6.21126 12.4821 6.57096 12.4821 7.01367C12.4821 7.47591 12.3404 7.84863 12.057 8.13184C11.7736 8.41504 11.3844 8.58594 10.8893 8.64453C10.6156 8.67708 9.91531 8.69336 8.78827 8.69336L9.04078 8.69307ZM7 14.3105L9.14828 14.3103L8.89577 14.3105C10.0228 14.3105 10.7231 14.2943 10.9967 14.2617C11.4919 14.2031 11.8811 14.0322 12.1645 13.749C12.4479 13.4658 12.5896 13.0931 12.5896 12.6309C12.5896 12.1882 12.4674 11.8285 12.2231 11.5518C11.9788 11.2751 11.6156 11.1074 11.1336 11.0488C10.866 11.0184 10.1303 11.0022 8.92638 11.0002L7 11V14.3105Z" />
</svg>
