<svg width="20" height="20" viewBox="0 0 20 20" fill="#B5B5BA" xmlns="http://www.w3.org/2000/svg">
<path fill-rule="evenodd" clip-rule="evenodd" d="M10 2C10.5125 2 10.935 2.35642 10.9927 2.81544L10.9994 2.92308V3.52423C13.221 3.95022 14.8871 5.64431 14.9922 7.78452L14.9975 8C14.9975 10.7677 15.9912 11.732 16.6128 12.3352C16.6539 12.3751 16.6935 12.4135 16.731 12.4507C16.9185 12.6364 17.0016 12.8591 17 13.0769C16.9971 13.5162 16.6499 13.9356 16.1219 13.9933L15.9969 14H4.00319C3.40569 14 3.0035 13.55 3.00004 13.0769C2.9985 12.8591 3.08163 12.6367 3.26912 12.4507L3.60716 12.118C4.19362 11.5195 4.94007 10.5413 4.99885 8.28833L5.00256 8C5.00256 5.83096 6.59698 4.08065 8.7804 3.57103L9.00067 3.52423V2.92308C9.00067 2.41337 9.44817 2 10 2ZM10 5.369L9.37731 5.48845C7.94432 5.76323 7.00256 6.79906 7.00256 8C7.00256 9.57816 6.73121 10.8406 6.21592 11.8775L6.15104 12H13.848L13.7842 11.8775C13.3085 10.9203 13.0407 9.77104 13.0023 8.35863L12.9975 8C12.9975 6.85365 12.1394 5.85773 10.8151 5.53058L10.6228 5.48845L10 5.369ZM13 16C13 17.1047 11.6564 18 10 18C8.34364 18 7.00004 17.1047 7.00004 16H13Z" />
</svg>
