<svg width="20" height="20" viewBox="0 0 20 20" fill="none" xmlns="http://www.w3.org/2000/svg">
<path fill-rule="evenodd" clip-rule="evenodd" d="M2.125 3H17.875C18.4963 3 19 3.44772 19 4V8.48108C18.6902 7.92303 18.2992 7.39971 17.8284 6.92893C17.5668 6.66735 17.2897 6.4308 17 6.21928V5H14.1799C13.3206 4.83824 12.4368 4.83824 11.5774 5H3V7H7.85885C7.27576 7.59961 6.82145 8.27786 6.49591 9H3V11H5.93372C5.85014 11.6643 5.86175 12.3384 5.96855 13H3V15H6.61099C6.93966 15.6598 7.37898 16.2785 7.92893 16.8284C7.98735 16.8868 8.04658 16.944 8.10659 17H2.125C1.50368 17 1 16.5523 1 16V4C1 3.44772 1.50368 3 2.125 3ZM15 14C16.1716 12.8284 16.1716 10.9289 15 9.75736C13.8284 8.58579 11.9289 8.58579 10.7574 9.75736C9.58579 10.9289 9.58579 12.8284 10.7574 14C11.9289 15.1716 13.8284 15.1716 15 14ZM9.34315 15.4142C11.0536 17.1247 13.695 17.3368 15.6364 16.0506L18.2426 18.6569C18.6332 19.0474 19.2663 19.0474 19.6569 18.6569C20.0474 18.2663 20.0474 17.6332 19.6569 17.2426L17.0506 14.6364C18.3368 12.695 18.1247 10.0536 16.4142 8.34315C14.4616 6.39052 11.2958 6.39052 9.34315 8.34315C7.39052 10.2958 7.39052 13.4616 9.34315 15.4142Z" fill="#B5B5BA"/>
</svg>
