<svg width="30" height="30" viewBox="0 0 16 16" fill="#B5B5BA" xmlns="http://www.w3.org/2000/svg">
<path fill-rule="evenodd" clip-rule="evenodd" d="M8 1C10.7518 1 13 3.13509 13 5.74845C13 7.02019 12.4428 8.24524 11.4849 9.14133L11.3453 9.26708L11.2914 9.31832C10.7026 9.87749 10.6514 11.089 10.6268 11.6727C10.6194 11.8474 10.6144 11.9658 10.5981 11.9937L10.5899 12H5.39209C5.37519 12 5.37119 11.8935 5.36471 11.7208C5.34359 11.1582 5.29612 9.89333 4.69065 9.31832C3.6295 8.43012 3 7.11491 3 5.74845C3 3.13509 5.2482 1 8 1ZM8 3C6.34577 3 5 4.29991 5 5.87458C5 6.64512 5.3303 7.3978 5.89599 7.93218L6.0553 8.07558C6.46682 8.47308 6.6919 8.99943 6.81639 9.63375L6.8482 9.81247L6.87473 10H7.5V6.86622C7.2011 6.69331 7 6.37014 7 6C7 5.44772 7.44772 5 8 5C8.55228 5 9 5.44772 9 6C9 6.37014 8.7989 6.69331 8.5 6.86622V10H9.11545L9.11772 9.98213C9.1251 9.92378 9.13324 9.86609 9.14224 9.8089L9.17189 9.63862C9.28364 9.05484 9.48043 8.5632 9.83063 8.17799L9.951 8.05538L10.01 7.99986C10.6392 7.44443 11 6.66726 11 5.87458C11 4.29991 9.65423 3 8 3ZM8.5 15C9.60457 15 10.5 14.1046 10.5 13H5.5C5.5 14.1046 6.39543 15 7.5 15H8.5Z" />
</svg>
