<svg width="18" height="15" viewBox="0 0 18 15" fill="none" xmlns="http://www.w3.org/2000/svg">
<path fill-rule="evenodd" clip-rule="evenodd" d="M1 0H7.38849C7.76386 0 8.1076 0.210204 8.27864 0.544331L9.0238 2H17C17.5523 2 18 2.44772 18 3V14C18 14.5523 17.5523 15 17 15H1C0.447715 15 0 14.5523 0 14V1C0 0.447715 0.447715 0 1 0ZM2 13H16V4H7.80079L6.77699 2H2V13ZM12.9189 11.2289C12.4468 11.4096 11.9688 11.5 11.4847 11.5C10.8696 11.5 10.3333 11.3727 9.876 11.1181C9.41867 10.8635 9.07501 10.4993 8.845 10.0257C8.615 9.55211 8.5 9.03694 8.5 8.48021C8.5 7.87599 8.62837 7.33905 8.88512 6.86939C9.14187 6.39974 9.51763 6.03958 10.0124 5.78892C10.3895 5.59631 10.8589 5.5 11.4205 5.5C12.1506 5.5 12.7209 5.65106 13.1315 5.95317C13.542 6.25528 13.8061 6.67282 13.9238 7.2058L12.7443 7.42348C12.6614 7.13852 12.5057 6.91359 12.277 6.74868C12.0483 6.58377 11.7628 6.50132 11.4205 6.50132C10.9017 6.50132 10.4891 6.66359 10.1829 6.98813C9.87667 7.31266 9.72356 7.7942 9.72356 8.43272C9.72356 9.12137 9.87868 9.63786 10.1889 9.98219C10.4991 10.3265 10.9057 10.4987 11.4085 10.4987C11.6572 10.4987 11.9066 10.4505 12.1566 10.3542C12.4067 10.2579 12.6213 10.1412 12.8005 10.004V9.26781H11.4406V8.29024H14V10.6016C13.7513 10.8391 13.3909 11.0482 12.9189 11.2289Z" fill="#67686F"/>
</svg>
