<svg width="20" height="20" viewBox="0 0 20 20" fill="#67686F" xmlns="http://www.w3.org/2000/svg">
<path fill-rule="evenodd" clip-rule="evenodd" d="M10 16C6.68629 16 3.68629 14 1 10C3.68629 6 6.68629 4 10 4C13.3137 4 16.3137 6 19 10C16.3137 14 13.3137 16 10 16ZM10 6C7.72822 6 5.55907 7.27465 3.4606 10C5.55907 12.7254 7.72822 14 10 14C12.2718 14 14.4409 12.7254 16.5394 10C14.4409 7.27465 12.2718 6 10 6ZM10 13C11.6569 13 13 11.6569 13 10C13 8.34315 11.6569 7 10 7C8.34315 7 7 8.34315 7 10C7 11.6569 8.34315 13 10 13Z"/>
</svg>
