<svg width="20" height="21" viewBox="0 0 20 21" fill="#583F99" xmlns="http://www.w3.org/2000/svg">
<path fill-rule="evenodd" clip-rule="evenodd" d="M8 4.66797C8 3.5634 8.89543 2.66797 10 2.66797C11.1046 2.66797 12 3.5634 12 4.66797C12 5.77254 11.1046 6.66797 10 6.66797C8.89543 6.66797 8 5.77254 8 4.66797ZM8 10.668C8 9.5634 8.89543 8.66797 10 8.66797C11.1046 8.66797 12 9.5634 12 10.668C12 11.7725 11.1046 12.668 10 12.668C8.89543 12.668 8 11.7725 8 10.668ZM8 16.668C8 15.5634 8.89543 14.668 10 14.668C11.1046 14.668 12 15.5634 12 16.668C12 17.7725 11.1046 18.668 10 18.668C8.89543 18.668 8 17.7725 8 16.668Z" />
</svg>
