<svg width="20" height="20" viewBox="0 0 20 20" fill="#B5B5BA" xmlns="http://www.w3.org/2000/svg">
<path fill-rule="evenodd" clip-rule="evenodd" d="M17 18C17 18.5523 16.5523 19 16 19H15V7.82843L10.1716 3H5V17H15V19H4C3.44772 19 3 18.5523 3 18V2C3 1.44772 3.44772 1 4 1H11L17 7V18ZM15 7.82843V9H9V3H10.1716L11 3.82843V7H14.1716L15 7.82843ZM7 14H10C10.5523 14 11 14.4477 11 15C11 15.5523 10.5523 16 10 16H7C6.44772 16 6 15.5523 6 15C6 14.4477 6.44772 14 7 14ZM7 11H13C13.5523 11 14 11.4477 14 12C14 12.5523 13.5523 13 13 13H7C6.44772 13 6 12.5523 6 12C6 11.4477 6.44772 11 7 11Z"/>
</svg>
