<svg width="21" height="20" viewBox="0 0 21 20" fill="#B5B5BA" xmlns="http://www.w3.org/2000/svg">
<path d="M1.33301 3C1.33301 2.44772 1.78072 2 2.33301 2C2.88529 2 3.33301 2.44772 3.33301 3V16H18.333C18.8853 16 19.333 16.4477 19.333 17C19.333 17.5523 18.8853 18 18.333 18H1.33301V3Z" />
<path d="M6.33301 6C5.78072 6 5.33301 6.44772 5.33301 7V13C5.33301 13.5523 5.78072 14 6.33301 14C6.88529 14 7.33301 13.5523 7.33301 13V7C7.33301 6.44772 6.88529 6 6.33301 6Z" />
<path d="M9.33301 9C9.33301 8.44772 9.78072 8 10.333 8C10.8853 8 11.333 8.44772 11.333 9V13C11.333 13.5523 10.8853 14 10.333 14C9.78072 14 9.33301 13.5523 9.33301 13V9Z" />
<path d="M14.333 10C13.7807 10 13.333 10.4477 13.333 11V13C13.333 13.5523 13.7807 14 14.333 14C14.8853 14 15.333 13.5523 15.333 13V11C15.333 10.4477 14.8853 10 14.333 10Z" />
<path fill-rule="evenodd" clip-rule="evenodd" d="M14.2315 0C13.8265 0 13.4669 0.248067 13.339 0.615764L13.0996 1.30409C13.0001 1.35357 12.903 1.40729 12.8086 1.46506L12.0636 1.31953C11.6671 1.24206 11.2632 1.41597 11.0608 1.75134L10.4592 2.74847C10.2567 3.08402 10.3014 3.50589 10.5701 3.79573L11.0742 4.33938C11.0717 4.39277 11.0705 4.44632 11.0705 4.5C11.0705 4.55336 11.0717 4.60659 11.0741 4.65966L10.5696 5.20451C10.3012 5.49435 10.2567 5.91597 10.459 6.25134L11.0607 7.24847C11.2632 7.58402 11.6674 7.75792 12.0641 7.68017L12.8077 7.53442C12.902 7.59215 12.999 7.64584 13.0984 7.69531L13.339 8.38498C13.4671 8.75229 13.8265 9 14.2312 9H15.4346C15.8396 9 16.1991 8.75203 16.327 8.38443L16.5668 7.69576C16.6663 7.64626 16.7634 7.59253 16.8578 7.53475L17.6022 7.68036C17.9988 7.75793 18.4028 7.58402 18.6053 7.2486L19.2069 6.25159C19.4094 5.91598 19.3646 5.49402 19.0958 5.20418L18.5919 4.66097C18.5943 4.60746 18.5956 4.55379 18.5956 4.5C18.5956 4.44653 18.5944 4.39318 18.5919 4.33999L19.0963 3.79558C19.3648 3.50573 19.4094 3.08402 19.207 2.74859L18.6054 1.75159C18.4028 1.41598 17.9985 1.24209 17.6018 1.31994L16.8586 1.46576C16.7641 1.4079 16.6669 1.3541 16.5674 1.30453L16.3271 0.615221C16.199 0.247802 15.8396 0 15.4348 0H14.2315ZM14.0206 2.78917L14.1527 2.73293L14.4105 2H15.2557L15.5142 2.73322L15.6461 2.78944C15.7679 2.84134 15.8838 2.90483 15.9921 2.97884L16.1098 3.05923L16.9105 2.90388L17.333 3.59625L16.7908 4.17494L16.8051 4.31098C16.8117 4.37346 16.8151 4.43651 16.8151 4.5C16.8151 4.56371 16.8117 4.62697 16.8051 4.68966L16.7906 4.82587L17.3329 5.40388L16.9104 6.09625L16.1091 5.94129L15.9916 6.02153C15.8833 6.09546 15.7674 6.15889 15.6457 6.21073L15.5137 6.26696L15.2556 7H14.4103L14.1516 6.26667L14.0197 6.21047C13.8981 6.15862 13.7823 6.0952 13.6741 6.02129L13.5565 5.94096L12.7556 6.09616L12.333 5.40371L12.8752 4.82477L12.8609 4.68879C12.8543 4.62639 12.851 4.56341 12.851 4.5C12.851 4.43637 12.8543 4.37318 12.8609 4.31057L12.8754 4.17442L12.3331 3.59616L12.7557 2.90371L13.5572 3.05852L13.6747 2.97834C13.7829 2.90442 13.8988 2.84101 14.0206 2.78917Z"/>
<path d="M15.833 4.5C15.833 5.05228 15.3853 5.5 14.833 5.5C14.2807 5.5 13.833 5.05228 13.833 4.5C13.833 3.94772 14.2807 3.5 14.833 3.5C15.3853 3.5 15.833 3.94772 15.833 4.5Z" />
</svg>
