<svg width="20" height="20" viewBox="0 0 20 20" fill="#B5B5BA" xmlns="http://www.w3.org/2000/svg">
    <path fill-rule="evenodd" clip-rule="evenodd" d="M16.364 5.05025C16.7545 4.65973 16.7545 4.02656 16.364 3.63604C15.9734 3.24551 15.3403 3.24551 14.9497 3.63604L13.6936 4.89222C12.509 4.29741 11.2778 4 10 4C6.68629 4 3.68629 6 1 10C2.13733 11.6935 3.3309 13.0286 4.5807 14.0051L3.63604 14.9497C3.24551 15.3403 3.24551 15.9734 3.63604 16.364C4.02656 16.7545 4.65973 16.7545 5.05025 16.364L6.30644 15.1078C7.49098 15.7026 8.72216 16 10 16C13.3137 16 16.3137 14 19 10C17.8627 8.30646 16.6691 6.97143 15.4193 5.99491L16.364 5.05025ZM10 6C7.72822 6 5.55907 7.27465 3.4606 10C4.29733 11.0867 5.14529 11.9427 6.00651 12.5793L7.29237 11.2934C7.10495 10.9018 7 10.4631 7 10C7 8.34315 8.34315 7 10 7C10.4631 7 10.9018 7.10495 11.2934 7.29237L12.178 6.40781C11.462 6.13394 10.7364 6 10 6ZM13.9935 7.42072L12.7076 8.70658C12.895 9.09822 13 9.53685 13 10C13 11.6569 11.6569 13 10 13C9.53685 13 9.09822 12.895 8.70658 12.7076L7.82202 13.5922C8.53796 13.8661 9.26359 14 10 14C12.2718 14 14.4409 12.7254 16.5394 10C15.7027 8.91332 14.8547 8.05728 13.9935 7.42072Z"/>
</svg>
