<svg width="20" height="20" viewBox="0 0 20 20" fill="none" xmlns="http://www.w3.org/2000/svg">
<path fill-rule="evenodd" clip-rule="evenodd" d="M0 4.5C0 6.98528 2.01472 9 4.5 9C6.98528 9 9 6.98528 9 4.5C9 2.01472 6.98528 0 4.5 0C2.01472 0 0 2.01472 0 4.5ZM7 4.5C7 5.88071 5.88071 7 4.5 7C3.11929 7 2 5.88071 2 4.5C2 3.11929 3.11929 2 4.5 2C5.88071 2 7 3.11929 7 4.5ZM11 15.5C11 17.9853 13.0147 20 15.5 20C17.9853 20 20 17.9853 20 15.5C20 13.0147 17.9853 11 15.5 11C13.0147 11 11 13.0147 11 15.5ZM18 15.5C18 16.8807 16.8807 18 15.5 18C14.1193 18 13 16.8807 13 15.5C13 14.1193 14.1193 13 15.5 13C16.8807 13 18 14.1193 18 15.5ZM11 1C11 0.447715 11.4477 0 12 0C12.5523 0 13 0.447715 13 1V7H19C19.5523 7 20 7.44772 20 8C20 8.55229 19.5523 9 19 9H13H11V7V1ZM15 2C14.4477 2 14 2.44772 14 3V5C14 5.55228 14.4477 6 15 6C15.5523 6 16 5.55228 16 5V3C16 2.44772 15.5523 2 15 2ZM17 4C17 3.44772 17.4477 3 18 3C18.5523 3 19 3.44772 19 4V5C19 5.55228 18.5523 6 18 6C17.4477 6 17 5.55228 17 5V4ZM1 11C0.447715 11 0 11.4477 0 12V18V20H2H8C8.55229 20 9 19.5523 9 19C9 18.4477 8.55229 18 8 18H2V12C2 11.4477 1.55228 11 1 11ZM4 12C3.44772 12 3 12.4477 3 13C3 13.5523 3.44772 14 4 14H5C5.55228 14 6 13.5523 6 13C6 12.4477 5.55228 12 5 12H4ZM3 16C3 15.4477 3.44772 15 4 15H6C6.55228 15 7 15.4477 7 16C7 16.5523 6.55228 17 6 17H4C3.44772 17 3 16.5523 3 16Z" fill="#67686F"/>
</svg>
