<svg width="20" height="20" viewBox="0 0 20 20" fill="#FFAE0A" xmlns="http://www.w3.org/2000/svg">
<path fill-rule="evenodd" clip-rule="evenodd" d="M9.08596 2.57454C9.46572 1.88804 10.452 1.88625 10.8343 2.57136L19.1702 17.5122C19.5421 18.1787 19.0603 18.9994 18.297 18.9994H1.69601C0.934332 18.9994 0.452279 18.1818 0.820975 17.5153L9.08596 2.57454ZM11 12.9995C11 13.5518 10.5523 13.9995 10 13.9995C9.44774 13.9995 9.00002 13.5518 9.00002 12.9995V8.99947C9.00002 8.44719 9.44774 7.99947 10 7.99947C10.5523 7.99947 11 8.44719 11 8.99947V12.9995ZM10 16.9995C10.5523 16.9995 11 16.5518 11 15.9995C11 15.4472 10.5523 14.9995 10 14.9995C9.44774 14.9995 9.00002 15.4472 9.00002 15.9995C9.00002 16.5518 9.44774 16.9995 10 16.9995Z"/>
</svg>
