<svg xmlns="http://www.w3.org/2000/svg" width="14.672" height="19.563" viewBox="0 0 14.672 19.563">
	<path d="M14.131,3.744,10.926.539A1.834,1.834,0,0,0,9.631,0h-7.8A1.84,1.84,0,0,0,0,1.837V17.73a1.834,1.834,0,0,0,1.834,1.834h11a1.837,1.837,0,0,0,1.837-1.834V5.042A1.845,1.845,0,0,0,14.131,3.744ZM9.78,1.987l2.907,2.907H9.78V1.987ZM12.838,17.73h-11V1.837H7.946V5.811a.915.915,0,0,0,.917.917h3.975ZM6.114,9.843A3.057,3.057,0,1,0,9.72,13.45H6.114V9.843ZM7.336,8.62v3.607h3.607A3.058,3.058,0,0,0,7.336,8.62Z"/>
</svg>
