<svg width="20" height="20" viewBox="0 0 20 20" fill="none" xmlns="http://www.w3.org/2000/svg">
<path fill-rule="evenodd" clip-rule="evenodd" d="M8.17218 14.2721C7.55473 14.2721 7.05419 13.7716 7.05419 13.1541V12.0374H5.93681V9.80136H7.05419V8.12312C7.05419 7.81439 6.80392 7.56412 6.49519 7.56412C6.18646 7.56412 5.93619 7.81439 5.93619 8.12312V13.1541C5.93619 13.7716 5.43565 14.2721 4.81819 14.2721C4.20074 14.2721 3.7002 13.7716 3.7002 13.1541V8.12312C3.7002 6.57949 4.95156 5.32812 6.49519 5.32812C8.03882 5.32812 9.29018 6.57949 9.29018 8.12312V13.1541C9.29018 13.7716 8.78964 14.2721 8.17218 14.2721ZM11.4085 5.32812C10.8562 5.32812 10.4085 5.77584 10.4085 6.32813V13.2721C10.4085 13.8244 10.8562 14.2721 11.4085 14.2721H11.6445C12.1968 14.2721 12.6445 13.8244 12.6445 13.2721V6.32812C12.6445 5.77584 12.1968 5.32812 11.6445 5.32812H11.4085ZM14.7634 5.32812C14.2111 5.32812 13.7634 5.77584 13.7634 6.32813V13.2721C13.7634 13.8244 14.2111 14.2721 14.7634 14.2721H14.9994C15.5517 14.2721 15.9994 13.8244 15.9994 13.2721V6.32812C15.9994 5.77584 15.5517 5.32812 14.9994 5.32812H14.7634Z" fill="#67686F"/>
</svg>
