<svg width="12" height="13" viewBox="0 0 12 13" fill="#67686F" xmlns="http://www.w3.org/2000/svg">
<path fill-rule="evenodd" clip-rule="evenodd" d="M11 0C10.4477 0 10 0.447715 10 1V12C10 12.5523 10.4477 13 11 13C11.5523 13 12 12.5523 12 12V1C12 0.447715 11.5523 0 11 0ZM2.20711 0.843146C1.81658 0.452621 1.18342 0.452621 0.792893 0.843146C0.402369 1.23367 0.402369 1.86683 0.792893 2.25736L5.03553 6.5L0.792893 10.7426C0.402369 11.1332 0.402369 11.7663 0.792893 12.1569C1.18342 12.5474 1.81658 12.5474 2.20711 12.1569L7.86396 6.5L2.20711 0.843146Z"/>
</svg>
