<svg width="20" height="20" viewBox="0 0 20 20" fill="#B5B5BA" xmlns="http://www.w3.org/2000/svg">
<g clip-path="url(#clip0_4752_135819)">
<path fill-rule="evenodd" clip-rule="evenodd" d="M10 6.88613C8.27979 6.88613 6.88526 8.28083 6.88526 10.0013C6.88526 11.7217 8.27979 13.1164 10 13.1164C11.7203 13.1164 13.1148 11.7217 13.1148 10.0013C13.1148 8.28083 11.7203 6.88613 10 6.88613ZM4.91804 10.0013C4.91804 7.19423 7.19332 4.91866 10 4.91866C12.8067 4.91866 15.082 7.19423 15.082 10.0013C15.082 12.8083 12.8067 15.0839 10 15.0839C7.19332 15.0839 4.91804 12.8083 4.91804 10.0013Z" />
<path fill-rule="evenodd" clip-rule="evenodd" d="M9.99998 0C10.5432 0 10.9836 0.440432 10.9836 0.983733V2.62329C10.9836 3.16659 10.5432 3.60702 9.99998 3.60702C9.45675 3.60702 9.01637 3.16659 9.01637 2.62329V0.983733C9.01637 0.440432 9.45675 0 9.99998 0Z" />
<path fill-rule="evenodd" clip-rule="evenodd" d="M9.99998 16.393C10.5432 16.393 10.9836 16.8334 10.9836 17.3767V19.0163C10.9836 19.5596 10.5432 20 9.99998 20C9.45675 20 9.01637 19.5596 9.01637 19.0163V17.3767C9.01637 16.8334 9.45675 16.393 9.99998 16.393Z" />
<path fill-rule="evenodd" clip-rule="evenodd" d="M2.92746 2.92422C3.31158 2.54005 3.93437 2.54005 4.31849 2.92422L5.48243 4.08831C5.86655 4.47248 5.86655 5.09534 5.48243 5.47952C5.0983 5.86369 4.47552 5.86369 4.09139 5.47952L2.92746 4.31543C2.54333 3.93126 2.54333 3.3084 2.92746 2.92422Z" />
<path fill-rule="evenodd" clip-rule="evenodd" d="M14.5176 14.5138C14.9018 14.1297 15.5245 14.1297 15.9087 14.5138L17.0726 15.6779C17.4567 16.0621 17.4567 16.6849 17.0726 17.0691C16.6885 17.4533 16.0657 17.4533 15.6816 17.0691L14.5176 15.905C14.1335 15.5209 14.1335 14.898 14.5176 14.5138Z" />
<path fill-rule="evenodd" clip-rule="evenodd" d="M0 9.99872C0 9.45542 0.440377 9.01499 0.983609 9.01499H2.62296C3.16619 9.01499 3.60656 9.45542 3.60656 9.99872C3.60656 10.542 3.16619 10.9825 2.62296 10.9825H0.983609C0.440377 10.9825 0 10.542 0 9.99872Z" />
<path fill-rule="evenodd" clip-rule="evenodd" d="M16.3934 9.99872C16.3934 9.45542 16.8338 9.01499 17.377 9.01499H19.0164C19.5596 9.01499 20 9.45542 20 9.99872C20 10.542 19.5596 10.9825 19.0164 10.9825H17.377C16.8338 10.9825 16.3934 10.542 16.3934 9.99872Z" />
<path fill-rule="evenodd" clip-rule="evenodd" d="M5.48243 14.5138C5.86655 14.898 5.86655 15.5209 5.48243 15.905L4.31849 17.0691C3.93437 17.4533 3.31158 17.4533 2.92746 17.0691C2.54333 16.6849 2.54333 16.0621 2.92746 15.6779L4.09139 14.5138C4.47552 14.1297 5.0983 14.1297 5.48243 14.5138Z" />
<path fill-rule="evenodd" clip-rule="evenodd" d="M17.0726 2.92422C17.4567 3.3084 17.4567 3.93126 17.0726 4.31543L15.9087 5.47952C15.5245 5.86369 14.9018 5.86369 14.5176 5.47952C14.1335 5.09534 14.1335 4.47248 14.5176 4.08831L15.6816 2.92422C16.0657 2.54005 16.6885 2.54005 17.0726 2.92422Z" />
</g>
<defs>
<clipPath id="clip0_4752_135819">
<rect width="20" height="20" fill="white"/>
</clipPath>
</defs>
</svg>
