<svg width="20" height="20" viewBox="0 0 20 20" fill="none" xmlns="http://www.w3.org/2000/svg">
<path fill-rule="evenodd" clip-rule="evenodd" d="M4.5 8H5.5C6.24028 8 6.88663 8.4022 7.23244 9H5.5C4.94772 9 4.5 9.44772 4.5 10C4.5 10.5523 4.94771 11 5.5 11H7.23244C6.88663 11.5978 6.24028 12 5.5 12H4.5C3.39543 12 2.5 11.1046 2.5 10C2.5 8.89543 3.39543 8 4.5 8ZM9.37398 11C8.92994 12.7252 7.36384 14 5.5 14H4.5C2.29086 14 0.5 12.2091 0.5 10C0.5 7.79086 2.29086 6 4.5 6H5.5C7.36384 6 8.92994 7.27477 9.37398 9H10.626C11.0701 7.27477 12.6362 6 14.5 6H15.5C17.7091 6 19.5 7.79086 19.5 10C19.5 12.2091 17.7091 14 15.5 14H14.5C12.6362 14 11.0701 12.7252 10.626 11H9.37398ZM15.5 8H14.5C13.7597 8 13.1134 8.4022 12.7676 9H14.5C15.0523 9 15.5 9.44772 15.5 10C15.5 10.5523 15.0523 11 14.5 11H12.7676C13.1134 11.5978 13.7597 12 14.5 12H15.5C16.6046 12 17.5 11.1046 17.5 10C17.5 8.89543 16.6046 8 15.5 8Z" fill="#B5B5BA"/>
</svg>
