<svg width="16" height="16" viewBox="0 0 16 16" fill="#B5B5BA" xmlns="http://www.w3.org/2000/svg">
<path fill-rule="evenodd" clip-rule="evenodd" d="M2.15458 8C2.19865 8.07091 2.24811 8.14855 2.30287 8.23182C2.58724 8.66427 3.00803 9.23871 3.5529 9.80952C4.65959 10.9689 6.1652 12 8 12C9.8348 12 11.3404 10.9689 12.4471 9.80952C12.992 9.23871 13.4128 8.66427 13.6971 8.23182C13.7519 8.14855 13.8013 8.07091 13.8454 8C13.8013 7.92909 13.7519 7.85145 13.6971 7.76818C13.4128 7.33573 12.992 6.76129 12.4471 6.19048C11.3404 5.03108 9.8348 4 8 4C6.1652 4 4.65959 5.03108 3.5529 6.19048C3.00803 6.76129 2.58724 7.33573 2.30287 7.76818C2.24811 7.85145 2.19865 7.92909 2.15458 8ZM15 8C15.8912 7.54632 15.891 7.54599 15.8908 7.54564L15.8894 7.54293L15.8867 7.53771L15.8785 7.52189C15.8718 7.509 15.8625 7.49144 15.8507 7.46953C15.8271 7.42572 15.7934 7.36443 15.7497 7.28817C15.6624 7.13577 15.5349 6.92278 15.3682 6.66932C15.0361 6.16427 14.5421 5.48871 13.8938 4.80952C12.6141 3.46891 10.6198 2 8 2C5.38025 2 3.38586 3.46891 2.10619 4.80952C1.45788 5.48871 0.963896 6.16427 0.63179 6.66932C0.465123 6.92278 0.337599 7.13577 0.250318 7.28817C0.20664 7.36443 0.172927 7.42572 0.149323 7.46953C0.137518 7.49144 0.12823 7.509 0.121479 7.52189L0.113253 7.53771L0.110568 7.54293L0.109583 7.54485C0.109407 7.5452 0.108837 7.54632 1 8L0.108837 7.54632C-0.036279 7.83137 -0.036279 8.16863 0.108837 8.45368L1 8C0.108837 8.45368 0.10866 8.45334 0.108837 8.45368L0.109583 8.45515L0.110568 8.45707L0.113253 8.46229L0.121479 8.47811C0.12823 8.491 0.137518 8.50856 0.149323 8.53047C0.172927 8.57428 0.20664 8.63557 0.250318 8.71183C0.337599 8.86423 0.465123 9.07722 0.63179 9.33068C0.963896 9.83573 1.45788 10.5113 2.10619 11.1905C3.38586 12.5311 5.38025 14 8 14C10.6198 14 12.6141 12.5311 13.8938 11.1905C14.5421 10.5113 15.0361 9.83573 15.3682 9.33068C15.5349 9.07722 15.6624 8.86423 15.7497 8.71183C15.7934 8.63557 15.8271 8.57428 15.8507 8.53047C15.8625 8.50856 15.8718 8.491 15.8785 8.47811L15.8867 8.46229L15.8894 8.45707L15.8904 8.45515C15.8906 8.4548 15.8912 8.45368 15 8ZM15 8L15.8912 8.45368C16.0363 8.16863 16.0359 7.83069 15.8908 7.54564L15 8ZM1.89036 8.45525C1.89018 8.45561 1.89025 8.45547 1.89036 8.45525ZM8 7.125C7.48086 7.125 7.09091 7.53366 7.09091 8C7.09091 8.46634 7.48086 8.875 8 8.875C8.51914 8.875 8.90909 8.46634 8.90909 8C8.90909 7.53366 8.51914 7.125 8 7.125ZM5.09091 8C5.09091 6.39527 6.41042 5.125 8 5.125C9.58958 5.125 10.9091 6.39527 10.9091 8C10.9091 9.60473 9.58958 10.875 8 10.875C6.41042 10.875 5.09091 9.60473 5.09091 8ZM1.89047 7.54496C1.89036 7.54473 1.89028 7.5446 1.89047 7.54496Z"/>
</svg>
