<svg width="14" height="16" viewBox="0 0 14 16" fill="none" xmlns="http://www.w3.org/2000/svg">
<path fill-rule="evenodd" clip-rule="evenodd" d="M1 16C0.447715 16 0 15.5523 0 15C0 14.4477 0.447716 14 1 14L13 14C13.5523 14 14 14.4477 14 15C14 15.5523 13.5523 16 13 16L1 16ZM8 12C8 12.5523 7.55229 13 7 13C6.44772 13 6 12.5523 6 12L6 6.00002L3.41422 6.00002C2.52331 6.00002 2.07714 4.92288 2.70711 4.29292L6.29289 0.707129C6.68342 0.316606 7.31658 0.316606 7.70711 0.707129L11.2929 4.29292C11.9229 4.92288 11.4767 6.00002 10.5858 6.00002H8V12Z" fill="#67686F"/>
</svg>
