<svg width="20" height="20" viewBox="0 0 20 20" fill="#B5B5BA" xmlns="http://www.w3.org/2000/svg">
<path fill-rule="evenodd" clip-rule="evenodd" d="M2 7C2 4.23858 4.23858 2 7 2H17V4H7C5.34315 4 4 5.34315 4 7C4 8.65685 5.34315 10 7 10H10.5833V12H7C4.23858 12 2 9.76142 2 7Z" />
<path fill-rule="evenodd" clip-rule="evenodd" d="M16 3C16.5523 3 17 3.44772 17 4V17C17 17.5523 16.5523 18 16 18C15.4477 18 15 17.5523 15 17V4C15 3.44772 15.4477 3 16 3Z" />
<path fill-rule="evenodd" clip-rule="evenodd" d="M10 3C10.5523 3 11 3.44772 11 4V17C11 17.5523 10.5523 18 10 18C9.44772 18 9 17.5523 9 17V4C9 3.44772 9.44772 3 10 3Z" />
</svg>
