<svg width="17" height="15" viewBox="0 0 17 15" fill="#6B6E74" xmlns="http://www.w3.org/2000/svg">
<path d="M3.40527 11.918C3.17957 11.918 2.96282 11.8283 2.80322 11.6687C2.64363 11.5091 2.5542 11.2927 2.5542 11.067V3.40503C2.55446 3.17941 2.64417 2.96313 2.80371 2.80359C2.96325 2.64405 3.17966 2.55422 3.40527 2.55396H13.6211C13.8469 2.55396 14.0634 2.64366 14.2231 2.80322C14.3829 2.96279 14.4729 3.17924 14.4731 3.40503V6.98206C14 6.98206 13.5 6.98206 12.7729 6.98206V4.25501H4.25928V10.213H8.4C8.4 11 8.40805 11.332 8.4 11.913L3.40527 11.918ZM0.851074 9.36304C0.625548 9.36304 0.409076 9.27351 0.249512 9.11414C0.089947 8.95476 0.000265013 8.73847 0 8.51294V0.849976C0.000265013 0.62445 0.089947 0.408279 0.249512 0.248902C0.409076 0.0895247 0.625548 4.31052e-07 0.851074 5.86759e-07H11.0659C11.1777 -0.000130812 11.2888 0.0218083 11.3921 0.0644537C11.4954 0.107099 11.5889 0.169606 11.668 0.248536C11.7471 0.327466 11.8101 0.421217 11.853 0.524415C11.8959 0.627613 11.9178 0.738221 11.918 0.849976V1.70203H1.70312V9.36401L0.851074 9.36304Z"/>
<path fill-rule="evenodd" clip-rule="evenodd" d="M11.3536 10.1464C11.5488 10.3417 11.5488 10.6583 11.3536 10.8536L10.7071 11.5L11.3536 12.1464C11.5488 12.3417 11.5488 12.6583 11.3536 12.8536C11.1583 13.0488 10.8417 13.0488 10.6464 12.8536L9.64645 11.8536C9.45118 11.6583 9.45118 11.3417 9.64645 11.1464L10.6464 10.1464C10.8417 9.95118 11.1583 9.95118 11.3536 10.1464Z"/>
<path fill-rule="evenodd" clip-rule="evenodd" d="M12.6464 8.14645C12.8417 7.95118 13.1583 7.95118 13.3536 8.14645L14.3536 9.14645C14.5488 9.34171 14.5488 9.65829 14.3536 9.85355C14.1583 10.0488 13.8417 10.0488 13.6464 9.85355L13 9.20711L12.3536 9.85355C12.1583 10.0488 11.8417 10.0488 11.6464 9.85355C11.4512 9.65829 11.4512 9.34171 11.6464 9.14645L12.6464 8.14645Z"/>
<path fill-rule="evenodd" clip-rule="evenodd" d="M11.6464 13.1464C11.8417 12.9512 12.1583 12.9512 12.3536 13.1464L13 13.7929L13.6464 13.1464C13.8417 12.9512 14.1583 12.9512 14.3536 13.1464C14.5488 13.3417 14.5488 13.6583 14.3536 13.8536L13.3536 14.8536C13.1583 15.0488 12.8417 15.0488 12.6464 14.8536L11.6464 13.8536C11.4512 13.6583 11.4512 13.3417 11.6464 13.1464Z"/>
<path fill-rule="evenodd" clip-rule="evenodd" d="M14.6464 10.1464C14.8417 9.95118 15.1583 9.95118 15.3536 10.1464L16.3536 11.1464C16.5488 11.3417 16.5488 11.6583 16.3536 11.8536L15.3536 12.8536C15.1583 13.0488 14.8417 13.0488 14.6464 12.8536C14.4512 12.6583 14.4512 12.3417 14.6464 12.1464L15.2929 11.5L14.6464 10.8536C14.4512 10.6583 14.4512 10.3417 14.6464 10.1464Z"/>
<path fill-rule="evenodd" clip-rule="evenodd" d="M9.5 11.5C9.5 11.2239 9.72386 11 10 11H16C16.2761 11 16.5 11.2239 16.5 11.5C16.5 11.7761 16.2761 12 16 12H10C9.72386 12 9.5 11.7761 9.5 11.5Z" fill="#6B6E74"/>
<path fill-rule="evenodd" clip-rule="evenodd" d="M13 8C13.2761 8 13.5 8.22386 13.5 8.5V14.5C13.5 14.7761 13.2761 15 13 15C12.7239 15 12.5 14.7761 12.5 14.5V8.5C12.5 8.22386 12.7239 8 13 8Z"/>
</svg>
