<svg width="20" height="20" viewBox="0 0 20 20" fill="#B5B5BA" xmlns="http://www.w3.org/2000/svg">
<path fill-rule="evenodd" clip-rule="evenodd" d="M1 2C1 1.44772 1.44772 1 2 1H18C18.5523 1 19 1.44772 19 2V5C19 5.55228 18.5523 6 18 6C17.4477 6 17 5.55228 17 5V3H3V5C3 5.55228 2.55228 6 2 6C1.44772 6 1 5.55228 1 5V2Z" />
<path fill-rule="evenodd" clip-rule="evenodd" d="M6 18C6 17.4477 6.44772 17 7 17H13C13.5523 17 14 17.4477 14 18C14 18.5523 13.5523 19 13 19H7C6.44772 19 6 18.5523 6 18Z" />
<path fill-rule="evenodd" clip-rule="evenodd" d="M10 1C10.5523 1 11 1.44772 11 2V18C11 18.5523 10.5523 19 10 19C9.44771 19 9 18.5523 9 18V2C9 1.44772 9.44771 1 10 1Z" />
</svg>
