<svg width="16" height="16" viewBox="0 0 16 16" fill="#B5B5BA" xmlns="http://www.w3.org/2000/svg">
<path fill-rule="evenodd" clip-rule="evenodd" d="M6.08619 0.593861C6.24669 0.232733 6.60481 0 7 0C7.79565 0 8.55871 0.31607 9.12132 0.87868C9.68393 1.44129 10 2.20435 10 3V4.66667H12.7684C13.1045 4.66379 13.4372 4.73353 13.7438 4.87115C14.0524 5.00965 14.3272 5.21359 14.5492 5.46883C14.7711 5.72407 14.9349 6.02452 15.0292 6.34936C15.1235 6.67419 15.1461 7.01565 15.0953 7.35006L14.1754 13.3499C14.1753 13.3502 14.1754 13.3496 14.1754 13.3499C14.0908 13.906 13.8081 14.4137 13.3796 14.7779C12.9524 15.141 12.4088 15.3381 11.8484 15.3333H2.33333C1.71449 15.3333 1.121 15.0875 0.683418 14.6499C0.245833 14.2123 0 13.6188 0 13V8.33333C0 7.71449 0.245833 7.121 0.683418 6.68342C1.121 6.24583 1.71449 6 2.33333 6H3.68346L6.08619 0.593861ZM5.33333 7.21221L7.57046 2.17867C7.61899 2.21238 7.66475 2.25054 7.70711 2.29289C7.89464 2.48043 8 2.73478 8 3V5.66667C8 6.21895 8.44772 6.66667 9 6.66667H12.7733L12.7847 6.6666C12.833 6.66606 12.8808 6.67602 12.9249 6.69581C12.969 6.71559 13.0083 6.74472 13.04 6.78119C13.0717 6.81765 13.0951 6.86057 13.1085 6.90698C13.122 6.95325 13.1252 7.00189 13.1181 7.04954C13.1181 7.04941 13.118 7.04967 13.1181 7.04954L12.198 13.0501C12.1859 13.1295 12.1455 13.202 12.0843 13.2541C12.023 13.3061 11.945 13.3343 11.8646 13.3334L5.33333 13.3333V7.21221ZM3.33333 13.3333V8H2.33333C2.24493 8 2.16014 8.03512 2.09763 8.09763C2.03512 8.16014 2 8.24493 2 8.33333V13C2 13.0884 2.03512 13.1732 2.09763 13.2357C2.16014 13.2982 2.24493 13.3333 2.33333 13.3333H3.33333Z"/>
</svg>
