<svg width="20" height="20" viewBox="0 0 20 20" fill="none" xmlns="http://www.w3.org/2000/svg">
<path fill-rule="evenodd" clip-rule="evenodd" d="M10 20C4.47715 20 0 15.5228 0 10C0 4.47715 4.47715 0 10 0C15.5228 0 20 4.47715 20 10C20 15.5228 15.5228 20 10 20ZM10 18C14.4183 18 18 14.4183 18 10C18 5.58172 14.4183 2 10 2C5.58172 2 2 5.58172 2 10C2 14.4183 5.58172 18 10 18ZM11.4142 7.17157L10 8.58579L8.58579 7.17157C8.19526 6.78105 7.5621 6.78105 7.17157 7.17157C6.78105 7.5621 6.78105 8.19526 7.17157 8.58579L8.58579 10L7.17157 11.4142C6.78105 11.8047 6.78105 12.4379 7.17157 12.8284C7.5621 13.219 8.19526 13.219 8.58579 12.8284L10 11.4142L11.4142 12.8284C11.8047 13.219 12.4379 13.219 12.8284 12.8284C13.219 12.4379 13.219 11.8047 12.8284 11.4142L11.4142 10L12.8284 8.58579C13.219 8.19526 13.219 7.5621 12.8284 7.17157C12.4379 6.78105 11.8047 6.78105 11.4142 7.17157Z" fill="#B5B5BA"/>
</svg>
