<svg width="20" height="21" viewBox="0 0 20 21" fill="#CFD0D3" xmlns="http://www.w3.org/2000/svg">
<path d="M18.3307 8.46121C18.4141 8.04454 18.0807 7.54454 17.6641 7.54454L12.9141 6.87788L10.7474 2.54454C10.6641 2.37788 10.5807 2.29454 10.4141 2.21121C9.99739 1.96121 9.4974 2.12788 9.2474 2.54454L7.16406 6.87788L2.41406 7.54454C2.16406 7.54454 1.9974 7.62788 1.91406 7.79454C1.58073 8.12788 1.58073 8.62788 1.91406 8.96121L5.33073 12.2945L4.4974 17.0445C4.4974 17.2112 4.4974 17.3779 4.58073 17.5445C4.83073 17.9612 5.33073 18.1279 5.7474 17.8779L9.99739 15.6279L14.2474 17.8779C14.3307 17.9612 14.4974 17.9612 14.6641 17.9612C14.7474 17.9612 14.7474 17.9612 14.8307 17.9612C15.2474 17.8779 15.5807 17.4612 15.4974 16.9612L14.6641 12.2112L18.0807 8.87788C18.2474 8.79454 18.3307 8.62788 18.3307 8.46121Z" />
</svg>
