<svg width="20" height="20" viewBox="0 0 20 20" fill="#B5B5BA" xmlns="http://www.w3.org/2000/svg">
<path fill-rule="evenodd" clip-rule="evenodd" d="M11 3C11 2.44772 10.5523 2 10 2C9.44772 2 9 2.44771 9 3V9H6.41421C5.52331 9 5.07714 10.0771 5.70711 10.7071L9.29289 14.2929C9.68342 14.6834 10.3166 14.6834 10.7071 14.2929L14.2929 10.7071C14.9229 10.0771 14.4767 9 13.5858 9H11V3ZM4 16C3.44772 16 3 16.4477 3 17C3 17.5523 3.44772 18 4 18H16C16.5523 18 17 17.5523 17 17C17 16.4477 16.5523 16 16 16H4Z" />
</svg>
