<svg width="20" height="20" viewBox="0 0 20 20" fill="#B5B5BA" xmlns="http://www.w3.org/2000/svg">
<path fill-rule="evenodd" clip-rule="evenodd" d="M14.9315 5C15.8861 5 16.6362 5.26495 17.1817 5.79484C17.7272 6.32473 18 6.9837 18 7.77174C18 8.22011 17.9219 8.64697 17.7657 9.05231C17.6096 9.45765 17.3621 9.88225 17.0233 10.3261L16.8471 10.5415C16.6779 10.7369 16.453 10.9721 16.1725 11.2472L15.2099 12.1704C14.9618 12.4128 14.7909 12.5883 14.6972 12.697C14.5931 12.8178 14.5022 12.9365 14.4244 13.0533L14.3178 13.2269H18V15H11.5L11.5388 14.7149C11.6336 14.1489 11.8318 13.6088 12.1335 13.0944C12.4584 12.5405 13.0756 11.8197 13.9853 10.9319L14.5816 10.3549C15.2047 9.74378 15.5963 9.31752 15.7563 9.07609C16.0115 8.68207 16.1391 8.29257 16.1391 7.90761C16.1391 7.48188 16.028 7.15466 15.8058 6.92595C15.5837 6.69724 15.2768 6.58288 14.8853 6.58288C14.4981 6.58288 14.1902 6.7029 13.9614 6.94293C13.7613 7.15297 13.6352 7.48436 13.5832 7.93712L13.5655 8.13859L11.7178 7.94837L11.7473 7.71116C11.8823 6.78339 12.2178 6.10838 12.7538 5.68614C13.3345 5.22871 14.0604 5 14.9315 5ZM4 5V9H8V5H10V15H8V11H4V15H2V5H4Z" />
</svg>
