<svg width="20" height="20" viewBox="0 0 20 20" fill="#B5B5BA" xmlns="http://www.w3.org/2000/svg">
<g clip-path="url(#clip0_4752_135926)">
<path fill-rule="evenodd" clip-rule="evenodd" d="M4.40711 6.59289C4.79763 6.98342 4.79763 7.61658 4.40711 8.00711L2.41421 10L4.40711 11.9929C4.79763 12.3834 4.79763 13.0166 4.40711 13.4071C4.01658 13.7976 3.38342 13.7976 2.99289 13.4071L0.292893 10.7071C-0.0976311 10.3166 -0.0976311 9.68342 0.292893 9.29289L2.99289 6.59289C3.38342 6.20237 4.01658 6.20237 4.40711 6.59289Z" />
<path fill-rule="evenodd" clip-rule="evenodd" d="M9.29289 0.292893C9.68342 -0.0976311 10.3166 -0.0976311 10.7071 0.292893L13.4071 2.99289C13.7976 3.38342 13.7976 4.01658 13.4071 4.40711C13.0166 4.79763 12.3834 4.79763 11.9929 4.40711L10 2.41421L8.00711 4.40711C7.61658 4.79763 6.98342 4.79763 6.59289 4.40711C6.20237 4.01658 6.20237 3.38342 6.59289 2.99289L9.29289 0.292893Z" />
<path fill-rule="evenodd" clip-rule="evenodd" d="M6.59289 15.5929C6.98342 15.2024 7.61658 15.2024 8.00711 15.5929L10 17.5858L11.9929 15.5929C12.3834 15.2024 13.0166 15.2024 13.4071 15.5929C13.7976 15.9834 13.7976 16.6166 13.4071 17.0071L10.7071 19.7071C10.3166 20.0976 9.68342 20.0976 9.29289 19.7071L6.59289 17.0071C6.20237 16.6166 6.20237 15.9834 6.59289 15.5929Z" />
<path fill-rule="evenodd" clip-rule="evenodd" d="M15.5929 6.59289C15.9834 6.20237 16.6166 6.20237 17.0071 6.59289L19.7071 9.29289C20.0976 9.68342 20.0976 10.3166 19.7071 10.7071L17.0071 13.4071C16.6166 13.7976 15.9834 13.7976 15.5929 13.4071C15.2024 13.0166 15.2024 12.3834 15.5929 11.9929L17.5858 10L15.5929 8.00711C15.2024 7.61658 15.2024 6.98342 15.5929 6.59289Z" />
<path fill-rule="evenodd" clip-rule="evenodd" d="M2.98023e-08 10C2.98023e-08 9.44771 0.447715 9 1 9H19C19.5523 9 20 9.44771 20 10C20 10.5523 19.5523 11 19 11H1C0.447715 11 2.98023e-08 10.5523 2.98023e-08 10Z" />
<path fill-rule="evenodd" clip-rule="evenodd" d="M10 2.98023e-08C10.5523 2.98023e-08 11 0.447715 11 1V19C11 19.5523 10.5523 20 10 20C9.44771 20 9 19.5523 9 19V1C9 0.447715 9.44771 2.98023e-08 10 2.98023e-08Z" />
</g>
<defs>
<clipPath id="clip0_4752_135926">
<rect width="20" height="20" fill="white"/>
</clipPath>
</defs>
</svg>
