<svg width="20" height="20" viewBox="0 0 20 20" fill="none" xmlns="http://www.w3.org/2000/svg">
<path fill-rule="evenodd" clip-rule="evenodd" d="M2 4C1.44772 4 1 4.44772 1 5C1 5.55228 1.44772 6 2 6H18C18.5523 6 19 5.55228 19 5C19 4.44772 18.5523 4 18 4H2ZM1 10C1 9.44772 1.44772 9 2 9H9C9.55229 9 10 9.44772 10 10C10 10.5523 9.55229 11 9 11H2C1.44772 11 1 10.5523 1 10ZM1 15C1 14.4477 1.44772 14 2 14H18C18.5523 14 19 14.4477 19 15C19 15.5523 18.5523 16 18 16H2C1.44772 16 1 15.5523 1 15Z" fill="#67686F"/>
</svg>
