<svg width="20" height="20" viewBox="0 0 20 20" fill="#31BEF0" xmlns="http://www.w3.org/2000/svg">
    <path d="M8.66431 7.27315C8.89096 7.04665 9.00451 6.78205 9.00451 6.44192V2.09582C9.00451 1.49125 8.51311 1 7.90846 1C7.30374 1 6.81249 1.49125 6.81249 2.09582V4.59025L4.69621 3.343C4.16716 3.00302 3.48684 3.15407 3.18466 3.68312C2.84454 4.21232 2.99559 4.8925 3.52464 5.19482C3.56244 5.19482 3.56244 5.23255 3.60039 5.23255L7.37949 7.42442C7.75734 7.68895 8.32419 7.6135 8.66431 7.27315ZM7.03929 9.91862C7.03929 9.5029 6.85021 9.12498 6.47229 8.9359L2.69334 6.74403C2.16414 6.40405 1.48396 6.5551 1.18164 7.08415C0.841437 7.61343 0.992712 8.29353 1.52176 8.59585C1.55956 8.59585 1.55956 8.63365 1.59729 8.63365L3.75136 9.88075L1.59729 11.128C1.06824 11.4302 0.841437 12.0728 1.14384 12.6397C1.44624 13.2066 2.08861 13.3953 2.65539 13.093C2.69334 13.093 2.69334 13.093 2.73091 13.093L6.51024 10.9013C6.85021 10.7123 7.03929 10.3343 7.03929 9.91862ZM9.00451 13.3577V17.7415C9.00451 18.3461 8.51311 18.8373 7.90846 18.8373C7.30374 18.8373 6.81249 18.3461 6.81249 17.7415V15.285L4.65841 16.5322C4.12936 16.8722 3.44904 16.7211 3.14686 16.1921C2.80666 15.6629 2.95779 14.9827 3.48684 14.6804C3.52456 14.6804 3.52456 14.6426 3.56236 14.6426L7.34169 12.4507C7.87074 12.1483 8.58879 12.3373 8.89104 12.9042C8.96656 13.0174 9.04209 13.2066 9.00451 13.3577ZM10.9695 13.4711V17.7414C10.9695 18.3461 11.4608 18.8372 12.0655 18.8372C12.6701 18.8372 13.1613 18.346 13.1613 17.7414V15.2849L15.2776 16.4943C15.8066 16.8343 16.487 16.6832 16.7893 16.1542C17.1295 15.6249 16.9782 14.9448 16.4492 14.6425C16.4114 14.6425 16.4114 14.6047 16.3736 14.6047L12.5945 12.4128C12.0654 12.1104 11.3851 12.2994 11.0828 12.8286C11.0073 13.0174 10.9317 13.2821 10.9695 13.4711ZM12.9347 9.91862C12.9347 9.5029 13.1236 9.12498 13.5015 8.9359L17.2807 6.74403C17.8097 6.40405 18.4901 6.5551 18.7924 7.08415C19.1324 7.61343 18.9813 8.29353 18.4522 8.59585C18.4145 8.59585 18.4145 8.63365 18.3767 8.63365L16.2224 9.88075L18.3767 11.1279C18.9057 11.4301 19.1324 12.0727 18.8301 12.6396C18.5278 13.1687 17.8852 13.3952 17.3184 13.0929C17.2807 13.0929 17.2807 13.0551 17.2429 13.0551L13.4638 10.8632C13.1236 10.7123 12.8969 10.3343 12.9347 9.91862ZM10.9695 6.36632V2.09582C10.9695 1.49125 11.4608 1 12.0655 1C12.6701 1 13.1613 1.49125 13.1613 2.09582V4.5523L15.2776 3.34293C15.8066 3.00295 16.487 3.154 16.7893 3.68305C17.1295 4.21225 16.9782 4.89242 16.4492 5.19475C16.4114 5.19475 16.4114 5.23248 16.3736 5.23248L12.5945 7.42435C12.0654 7.72675 11.3851 7.53775 11.0828 7.0087C11.0073 6.81985 10.9317 6.59297 10.9695 6.36632ZM10.4405 7.95348C10.3649 7.87803 10.2892 7.84007 10.1759 7.84007H9.79794C9.68461 7.84007 9.60901 7.87803 9.53349 7.95348L8.02179 9.46517C7.94626 9.5407 7.90846 9.6163 7.90846 9.72955V10.1076C7.90846 10.221 7.94626 10.2966 8.02179 10.3721L9.53349 11.8838C9.60901 11.9593 9.68461 11.9971 9.79794 11.9971H10.1759C10.2892 11.9971 10.3649 11.9593 10.4405 11.8838L11.952 10.3721C11.9898 10.2965 12.0277 10.1831 12.0277 10.1076V9.72955C12.0277 9.61623 11.9898 9.54062 11.9142 9.46517L10.4405 7.95348ZM10.2137 9.27633C10.1759 9.23838 10.1003 9.20057 10.0247 9.20057C9.94899 9.20057 9.87346 9.23838 9.83581 9.27633L9.38221 9.72962C9.34441 9.76742 9.30661 9.84318 9.30661 9.9187C9.30661 9.9943 9.34441 10.07 9.38221 10.1078L9.83581 10.5612C9.87339 10.5989 9.94899 10.6368 10.0247 10.6368C10.1003 10.6368 10.1759 10.5989 10.2137 10.5612L10.6671 10.1078C10.7048 10.07 10.7428 9.9943 10.7428 9.9187C10.7428 9.84318 10.7048 9.76742 10.6671 9.72962L10.2137 9.27633Z"/>
</svg>
