<svg width="20" height="20" viewBox="0 0 20 20" fill="#B5B5BA" xmlns="http://www.w3.org/2000/svg">
<path fill-rule="evenodd" clip-rule="evenodd" d="M4 5C4 5.55228 3.55228 6 3 6C2.44772 6 2 5.55228 2 5C2 4.44772 2.44772 4 3 4C3.55228 4 4 4.44772 4 5ZM4 10C4 10.5523 3.55228 11 3 11C2.44772 11 2 10.5523 2 10C2 9.44772 2.44772 9 3 9C3.55228 9 4 9.44772 4 10ZM3 16C3.55228 16 4 15.5523 4 15C4 14.4477 3.55228 14 3 14C2.44772 14 2 14.4477 2 15C2 15.5523 2.44772 16 3 16ZM7 14C6.44772 14 6 14.4477 6 15C6 15.5523 6.44771 16 7 16H17C17.5523 16 18 15.5523 18 15C18 14.4477 17.5523 14 17 14H7ZM7 9C6.44772 9 6 9.44772 6 10C6 10.5523 6.44771 11 7 11H17C17.5523 11 18 10.5523 18 10C18 9.44772 17.5523 9 17 9H7ZM7 4C6.44772 4 6 4.44772 6 5C6 5.55228 6.44771 6 7 6H17C17.5523 6 18 5.55228 18 5C18 4.44772 17.5523 4 17 4H7Z"/>
</svg>
