<svg width="20" height="20" viewBox="0 0 20 20" fill="none" xmlns="http://www.w3.org/2000/svg">
<path fill-rule="evenodd" clip-rule="evenodd" d="M2 3H8.38849C8.76386 3 9.1076 3.2102 9.27864 3.54433L10.0238 5H18C18.5523 5 19 5.44772 19 6V17C19 17.5523 18.5523 18 18 18H2C1.44772 18 1 17.5523 1 17V4C1 3.44772 1.44772 3 2 3ZM3 16H17V7H8.80079L7.77699 5H3V16ZM13.9189 14.2289C13.4468 14.4096 12.9688 14.5 12.4847 14.5C11.8696 14.5 11.3333 14.3727 10.876 14.1181C10.4187 13.8635 10.075 13.4993 9.845 13.0257C9.615 12.5521 9.5 12.0369 9.5 11.4802C9.5 10.876 9.62837 10.3391 9.88512 9.86939C10.1419 9.39974 10.5176 9.03958 11.0124 8.78892C11.3895 8.59631 11.8589 8.5 12.4205 8.5C13.1506 8.5 13.7209 8.65106 14.1315 8.95317C14.542 9.25528 14.8061 9.67282 14.9238 10.2058L13.7443 10.4235C13.6614 10.1385 13.5057 9.91359 13.277 9.74868C13.0483 9.58377 12.7628 9.50132 12.4205 9.50132C11.9017 9.50132 11.4891 9.66359 11.1829 9.98813C10.8767 10.3127 10.7236 10.7942 10.7236 11.4327C10.7236 12.1214 10.8787 12.6379 11.1889 12.9822C11.4991 13.3265 11.9057 13.4987 12.4085 13.4987C12.6572 13.4987 12.9066 13.4505 13.1566 13.3542C13.4067 13.2579 13.6213 13.1412 13.8005 13.004V12.2678H12.4406V11.2902H15V13.6016C14.7513 13.8391 14.3909 14.0482 13.9189 14.2289Z" fill="#B5B5BA"/>
</svg>
