<svg width="20" height="20" viewBox="0 0 20 20" fill="none" xmlns="http://www.w3.org/2000/svg">
<path fill-rule="evenodd" clip-rule="evenodd" d="M8.5 10L4.70711 13.7929C4.31658 14.1834 4.31658 14.8166 4.70711 15.2071L4.79289 15.2929C5.18342 15.6834 5.81658 15.6834 6.20711 15.2929L10 11.5L13.7929 15.2929C14.1834 15.6834 14.8166 15.6834 15.2071 15.2929L15.2929 15.2071C15.6834 14.8166 15.6834 14.1834 15.2929 13.7929L11.5 10L15.2929 6.20711C15.6834 5.81658 15.6834 5.18342 15.2929 4.79289L15.2071 4.70711C14.8166 4.31658 14.1834 4.31658 13.7929 4.70711L10 8.5L6.20711 4.70711C5.81658 4.31658 5.18342 4.31658 4.79289 4.70711L4.70711 4.79289C4.31658 5.18342 4.31658 5.81658 4.70711 6.20711L8.5 10Z" fill="#67686F"/>
</svg>
