<svg width="20" height="20" viewBox="0 0 20 20" fill="#B5B5BA" xmlns="http://www.w3.org/2000/svg">
<path d="M10 0C8.14348 0 6.36301 0.737498 5.05025 2.05025C3.7375 3.36301 3 5.14348 3 7V13C3 14.8565 3.7375 16.637 5.05025 17.9497C6.36301 19.2625 8.14348 20 10 20C11.8565 20 13.637 19.2625 14.9497 17.9497C16.2625 16.637 17 14.8565 17 13V7C17 5.14348 16.2625 3.36301 14.9497 2.05025C13.637 0.737498 11.8565 0 10 0ZM5 7C4.99976 5.84735 5.39778 4.73001 6.12669 3.8371C6.8556 2.94418 7.87064 2.33053 9 2.1V8H5V7ZM15 13C15 14.3261 14.4732 15.5979 13.5355 16.5355C12.5979 17.4732 11.3261 18 10 18C8.67392 18 7.40215 17.4732 6.46447 16.5355C5.52678 15.5979 5 14.3261 5 13V10H15V13ZM15 8H11V2.1C12.1294 2.33053 13.1444 2.94418 13.8733 3.8371C14.6022 4.73001 15.0002 5.84735 15 7V8Z" />
</svg>
