<svg width="20" height="20" viewBox="0 0 20 20" fill="#B5B5BA" xmlns="http://www.w3.org/2000/svg">
<path fill-rule="evenodd" clip-rule="evenodd" d="M4 4C3.44772 4 3 4.44772 3 5C3 5.55228 3.44772 6 4 6H15C15.5523 6 16 5.55228 16 5C16 4.44772 15.5523 4 15 4H4ZM3.84315 13.7929C3.45262 14.1834 3.45262 14.8166 3.84315 15.2071C4.23367 15.5976 4.86684 15.5976 5.25736 15.2071L9.5 10.9645L13.7426 15.2071C14.1332 15.5976 14.7663 15.5976 15.1569 15.2071C15.5474 14.8166 15.5474 14.1834 15.1569 13.7929L9.5 8.13604L3.84315 13.7929Z" />
</svg>
