<svg width="20" height="20" viewBox="0 0 20 20" fill="none" xmlns="http://www.w3.org/2000/svg">
<path fill-rule="evenodd" clip-rule="evenodd" d="M12.2426 12.2426C9.89949 14.5858 6.1005 14.5858 3.75736 12.2426C1.41421 9.89949 1.41421 6.1005 3.75736 3.75736C6.1005 1.41421 9.89949 1.41421 12.2426 3.75736C14.5858 6.1005 14.5858 9.89949 12.2426 12.2426ZM10.8284 10.8284C12.3905 9.26633 12.3905 6.73367 10.8284 5.17157C9.26633 3.60948 6.73367 3.60948 5.17157 5.17157C3.60948 6.73367 3.60948 9.26633 5.17157 10.8284C6.73367 12.3905 9.26633 12.3905 10.8284 10.8284ZM12.9499 11.5355L11.5356 12.9498L16.0712 17.4853C16.4617 17.8758 17.0949 17.8758 17.4854 17.4853C17.8759 17.0948 17.8759 16.4616 17.4854 16.0711L12.9499 11.5355Z" fill="#B5B5BA"/>
</svg>
