<svg width="16" height="16" viewBox="0 0 16 16" fill="#B5B5BA" xmlns="http://www.w3.org/2000/svg">
<path fill-rule="evenodd" clip-rule="evenodd" d="M4.80078 1.60078C4.80078 1.15895 5.15895 0.800781 5.60078 0.800781C6.04261 0.800781 6.40078 1.15895 6.40078 1.60078V2.40078H9.60078V1.60078C9.60078 1.15895 9.95895 0.800781 10.4008 0.800781C10.8426 0.800781 11.2008 1.15895 11.2008 1.60078V2.40078H13.6008C14.4844 2.40078 15.2008 3.11713 15.2008 4.00078V6.40078V8.00078V13.6008C15.2008 14.4844 14.4844 15.2008 13.6008 15.2008H2.40078C1.51713 15.2008 0.800781 14.4844 0.800781 13.6008V8.00078V6.40078V4.00078C0.800781 3.11713 1.51713 2.40078 2.40078 2.40078H4.80078V1.60078ZM9.60078 4.00078V4.80078C9.60078 5.24261 9.95895 5.60078 10.4008 5.60078C10.8426 5.60078 11.2008 5.24261 11.2008 4.80078V4.00078H13.6008V6.40078H2.40078V4.00078H4.80078V4.80078C4.80078 5.24261 5.15895 5.60078 5.60078 5.60078C6.04261 5.60078 6.40078 5.24261 6.40078 4.80078V4.00078H9.60078ZM2.40078 8.00078V13.6008H13.6008V8.00078H2.40078Z"/>
</svg>
