<svg width="20" height="8" viewBox="0 0 20 8" fill="none" xmlns="http://www.w3.org/2000/svg">
<path fill-rule="evenodd" clip-rule="evenodd" d="M4.5 2H5.5C6.24028 2 6.88663 2.4022 7.23244 3H5.5C4.94772 3 4.5 3.44772 4.5 4C4.5 4.55228 4.94771 5 5.5 5H7.23244C6.88663 5.5978 6.24028 6 5.5 6H4.5C3.39543 6 2.5 5.10457 2.5 4C2.5 2.89543 3.39543 2 4.5 2ZM9.37398 5C8.92994 6.72523 7.36384 8 5.5 8H4.5C2.29086 8 0.5 6.20914 0.5 4C0.5 1.79086 2.29086 0 4.5 0H5.5C7.36384 0 8.92994 1.27477 9.37398 3H10.626C11.0701 1.27477 12.6362 0 14.5 0H15.5C17.7091 0 19.5 1.79086 19.5 4C19.5 6.20914 17.7091 8 15.5 8H14.5C12.6362 8 11.0701 6.72523 10.626 5H9.37398ZM15.5 2H14.5C13.7597 2 13.1134 2.4022 12.7676 3H14.5C15.0523 3 15.5 3.44772 15.5 4C15.5 4.55228 15.0523 5 14.5 5H12.7676C13.1134 5.5978 13.7597 6 14.5 6H15.5C16.6046 6 17.5 5.10457 17.5 4C17.5 2.89543 16.6046 2 15.5 2Z" fill="#67686F"/>
</svg>
