<svg width="20" height="20" viewBox="0 0 20 20" fill="none" xmlns="http://www.w3.org/2000/svg">
<path d="M3.375 12.5H16.625C16.861 12.5 17.066 12.5867 17.24 12.76C17.4133 12.934 17.5 13.139 17.5 13.375C17.5 13.611 17.4133 13.816 17.24 13.99C17.066 14.1633 16.861 14.25 16.625 14.25H3.375C3.139 14.25 2.934 14.1633 2.76 13.99C2.58667 13.816 2.5 13.611 2.5 13.375C2.5 13.139 2.58667 12.934 2.76 12.76C2.934 12.5867 3.139 12.5 3.375 12.5Z" fill="#B5B5BA"/>
<path d="M11.625 5H3.375C3.139 5 2.934 5.08667 2.76 5.26C2.58667 5.434 2.5 5.639 2.5 5.875C2.5 6.111 2.58667 6.316 2.76 6.49C2.934 6.66333 3.139 6.75 3.375 6.75H11.625C11.861 6.75 12.066 6.66333 12.24 6.49C12.4133 6.316 12.5 6.111 12.5 5.875C12.5 5.639 12.4133 5.434 12.24 5.26C12.066 5.08667 11.861 5 11.625 5Z" fill="#B5B5BA"/>
<path d="M6.625 8.75H3.375C3.139 8.75 2.934 8.83667 2.76 9.01C2.58667 9.184 2.5 9.389 2.5 9.625C2.5 9.861 2.58667 10.066 2.76 10.24C2.934 10.4133 3.139 10.5 3.375 10.5H6.625C6.861 10.5 7.066 10.4133 7.24 10.24C7.41333 10.066 7.5 9.861 7.5 9.625C7.5 9.389 7.41333 9.184 7.24 9.01C7.066 8.83667 6.861 8.75 6.625 8.75Z" fill="#B5B5BA"/>
</svg>
