<svg width="230" height="128" viewBox="0 0 230 128" fill="none" xmlns="http://www.w3.org/2000/svg">
<rect x="12" y="12" width="148" height="16" rx="4" fill="#F6F8F9"/>
<rect x="18" y="18" width="16" height="4" rx="2" fill="#C8D4DA"/>
<rect x="38" y="18" width="24" height="4" rx="2" fill="#C8D4DA"/>
<rect x="139" y="18" width="15" height="4" rx="2" fill="#C8D4DA"/>
<rect x="12" y="32" width="148" height="16" rx="4" fill="#F6F8F9"/>
<rect x="18" y="38" width="16" height="4" rx="2" fill="#C8D4DA"/>
<rect x="38" y="38" width="80" height="4" rx="2" fill="#C8D4DA"/>
<rect x="146" y="38" width="8" height="4" rx="2" fill="#C8D4DA"/>
<rect x="12" y="60" width="148" height="16" rx="4" fill="#F6F8F9"/>
<rect x="18" y="66" width="16" height="4" rx="2" fill="#C8D4DA"/>
<rect x="38" y="66" width="47" height="4" rx="2" fill="#C8D4DA"/>
<rect x="146" y="66" width="8" height="4" rx="2" fill="#C8D4DA"/>
<rect x="12" y="80" width="148" height="16" rx="4" fill="#F6F8F9"/>
<rect x="18" y="86" width="16" height="4" rx="2" fill="#C8D4DA"/>
<rect x="38" y="86" width="58" height="4" rx="2" fill="#C8D4DA"/>
<rect x="142" y="86" width="12" height="4" rx="2" fill="#C8D4DA"/>
<rect x="12" y="100" width="148" height="16" rx="4" fill="#F6F8F9"/>
<rect x="18" y="106" width="16" height="4" rx="2" fill="#C8D4DA"/>
<rect x="38" y="106" width="39" height="4" rx="2" fill="#C8D4DA"/>
<rect x="135" y="106" width="19" height="4" rx="2" fill="#C8D4DA"/>
<rect x="0.5" y="0.5" width="171" height="127" rx="3.5" stroke="#E7ECEE"/>
<g filter="url(#filter0_dd_3740_57490)">
<rect x="62" y="36" width="152" height="28" rx="4" fill="#FBFBFC"/>
<rect x="70" y="44" width="16" height="12" rx="2" fill="#C8D4DA"/>
<rect x="90" y="44" width="46" height="12" rx="2" fill="#C8D4DA"/>
<rect x="182" y="44" width="24" height="12" rx="2" fill="#C8D4DA"/>
<rect x="62.5" y="36.5" width="151" height="27" rx="3.5" stroke="#F6F8F9"/>
</g>
<g clip-path="url(#clip0_3740_57490)">
<path d="M168.607 51.425C168.294 51.4254 167.995 51.5514 167.774 51.7755C167.553 51.9995 167.429 52.3034 167.428 52.6205V53.9828C167.428 54.1463 167.364 54.3032 167.25 54.4188C167.136 54.5344 166.982 54.5994 166.82 54.5994C166.659 54.5994 166.505 54.5344 166.391 54.4188C166.277 54.3032 166.213 54.1463 166.213 53.9828V52.6219V50.6633C166.213 50.3458 166.089 50.0414 165.868 49.8169C165.647 49.5925 165.347 49.4664 165.034 49.4664C164.722 49.4664 164.422 49.5925 164.201 49.8169C163.98 50.0414 163.855 50.3458 163.855 50.6633V53.9828C163.855 54.1463 163.791 54.3032 163.678 54.4188C163.564 54.5344 163.409 54.5994 163.248 54.5994C163.087 54.5994 162.933 54.5344 162.819 54.4188C162.705 54.3032 162.641 54.1463 162.641 53.9828V50.6633V49.4301C162.641 49.1126 162.517 48.8082 162.296 48.5837C162.075 48.3593 161.775 48.2332 161.462 48.2332C161.149 48.2332 160.85 48.3593 160.628 48.5837C160.407 48.8082 160.283 49.1126 160.283 49.4301V53.9828C160.283 54.1463 160.219 54.3032 160.105 54.4188C159.991 54.5344 159.837 54.5994 159.676 54.5994C159.515 54.5994 159.36 54.5344 159.246 54.4188C159.133 54.3032 159.069 54.1463 159.069 53.9828V50.6633C159.069 50.3458 158.944 50.0414 158.723 49.8169C158.502 49.5925 158.202 49.4664 157.89 49.4664C157.577 49.4664 157.277 49.5925 157.056 49.8169C156.835 50.0414 156.711 50.3458 156.711 50.6633V54.3346V55.9472C156.711 56.1107 156.647 56.2676 156.533 56.3832C156.419 56.4988 156.265 56.5638 156.104 56.5638C155.943 56.5638 155.788 56.4988 155.674 56.3832C155.56 56.2676 155.496 56.1107 155.496 55.9472V55.2218L154.887 55.6665C154.679 55.8186 154.51 56.0187 154.393 56.2502C154.276 56.4818 154.215 56.7382 154.215 56.9983V60.4281C154.215 62.4832 154.981 64.0747 156.492 65.1585C157.959 66.2111 160.128 66.7667 162.764 66.7667C165.387 66.7667 169.785 65.8404 169.785 59.6374C169.785 59.5612 169.785 59.4843 169.782 59.4089V59.3828V59.3566C169.782 59.3305 169.782 59.3037 169.782 59.2769V52.6219C169.781 52.3054 169.657 52.0022 169.437 51.7781C169.217 51.554 168.918 51.4271 168.607 51.425Z" fill="white"/>
<path d="M171 52.6219C171 52.1966 170.89 51.7786 170.681 51.4099C170.473 51.0412 170.172 50.7346 169.81 50.5208C169.448 50.307 169.037 50.1935 168.618 50.1916C168.199 50.1898 167.787 50.2996 167.423 50.5102C167.397 50.0858 167.261 49.6757 167.03 49.3211C166.799 48.9664 166.48 48.6796 166.105 48.4894C165.731 48.2992 165.313 48.2122 164.895 48.2371C164.477 48.262 164.073 48.398 163.723 48.6314C163.559 48.1548 163.254 47.7416 162.849 47.4492C162.444 47.1569 161.959 46.9998 161.462 46.9998C160.965 46.9998 160.48 47.1569 160.075 47.4492C159.67 47.7416 159.365 48.1548 159.201 48.6314C158.841 48.3911 158.422 48.2543 157.991 48.2355C157.56 48.2168 157.132 48.3168 156.752 48.525C156.373 48.7332 156.055 49.0418 155.834 49.4181C155.613 49.7944 155.496 50.2244 155.496 50.6626V51.9828C155.496 51.9944 155.496 52.006 155.496 52.0176V53.7035L154.176 54.6676C153.812 54.9341 153.516 55.2842 153.312 55.6894C153.108 56.0945 153.001 56.5431 153 56.9983V60.4281C153 62.872 153.965 64.8531 155.791 66.1661C157.465 67.3659 159.876 68 162.764 68C165.517 68 167.64 67.1672 169.077 65.5241C170.335 64.0849 171 62.0494 171 59.6374C171 59.5583 171 59.4792 171 59.4009C171 59.3596 171 59.3182 171 59.2769V52.6219ZM169.785 59.2769C169.785 59.3037 169.785 59.3305 169.785 59.3566V59.3828V59.4089C169.785 59.4814 169.789 59.5612 169.789 59.6374C169.789 65.8404 165.39 66.7667 162.768 66.7667C160.132 66.7667 157.963 66.2111 156.496 65.1585C154.981 64.0747 154.215 62.4832 154.215 60.4281V56.9983C154.215 56.7385 154.276 56.4825 154.393 56.2513C154.509 56.02 154.678 55.8201 154.885 55.6679L155.495 55.2232V55.9487C155.495 56.1122 155.559 56.269 155.673 56.3847C155.787 56.5003 155.941 56.5653 156.102 56.5653C156.263 56.5653 156.418 56.5003 156.532 56.3847C156.645 56.269 156.709 56.1122 156.709 55.9487V54.3353V50.6633C156.709 50.3458 156.834 50.0414 157.055 49.8169C157.276 49.5925 157.576 49.4664 157.888 49.4664C158.201 49.4664 158.501 49.5925 158.722 49.8169C158.943 50.0414 159.067 50.3458 159.067 50.6633V53.9828C159.067 54.1463 159.131 54.3032 159.245 54.4188C159.359 54.5344 159.513 54.5994 159.674 54.5994C159.836 54.5994 159.99 54.5344 160.104 54.4188C160.218 54.3032 160.282 54.1463 160.282 53.9828V49.4301C160.282 49.1126 160.406 48.8082 160.627 48.5837C160.848 48.3593 161.148 48.2332 161.461 48.2332C161.773 48.2332 162.073 48.3593 162.294 48.5837C162.515 48.8082 162.639 49.1126 162.639 49.4301V50.6633V53.9828C162.639 54.1463 162.703 54.3032 162.817 54.4188C162.931 54.5344 163.086 54.5994 163.247 54.5994C163.408 54.5994 163.562 54.5344 163.676 54.4188C163.79 54.3032 163.854 54.1463 163.854 53.9828V50.6618C163.854 50.3444 163.978 50.0399 164.199 49.8155C164.42 49.591 164.72 49.4649 165.033 49.4649C165.346 49.4649 165.645 49.591 165.866 49.8155C166.088 50.0399 166.212 50.3444 166.212 50.6618V52.6205V53.9828C166.212 54.1463 166.276 54.3032 166.39 54.4188C166.503 54.5344 166.658 54.5994 166.819 54.5994C166.98 54.5994 167.135 54.5344 167.248 54.4188C167.362 54.3032 167.426 54.1463 167.426 53.9828V52.6205C167.426 52.303 167.55 51.9986 167.772 51.7741C167.993 51.5496 168.292 51.4235 168.605 51.4235C168.918 51.4235 169.218 51.5496 169.439 51.7741C169.66 51.9986 169.784 52.303 169.784 52.6205L169.785 59.2769Z" fill="#808189"/>
<path d="M159.676 62.6871C159.596 62.6872 159.517 62.6714 159.443 62.6404C159.37 62.6095 159.303 62.564 159.246 62.5068C159.19 62.4495 159.145 62.3815 159.115 62.3066C159.084 62.2318 159.069 62.1515 159.069 62.0705V57.3285C159.069 57.165 159.133 57.0081 159.246 56.8925C159.36 56.7769 159.515 56.7119 159.676 56.7119C159.837 56.7119 159.991 56.7769 160.105 56.8925C160.219 57.0081 160.283 57.165 160.283 57.3285V62.0705C160.283 62.2341 160.219 62.3909 160.105 62.5065C159.991 62.6222 159.837 62.6871 159.676 62.6871Z" fill="#808189"/>
<path d="M163.248 62.6871C163.087 62.6871 162.933 62.6222 162.819 62.5065C162.705 62.3909 162.641 62.2341 162.641 62.0705V57.3285C162.641 57.165 162.705 57.0081 162.819 56.8925C162.933 56.7769 163.087 56.7119 163.248 56.7119C163.409 56.7119 163.564 56.7769 163.678 56.8925C163.791 57.0081 163.855 57.165 163.855 57.3285V62.0705C163.856 62.1515 163.84 62.2318 163.809 62.3066C163.779 62.3815 163.734 62.4495 163.678 62.5068C163.621 62.564 163.554 62.6095 163.481 62.6404C163.407 62.6714 163.328 62.6872 163.248 62.6871Z" fill="#808189"/>
<path d="M166.818 62.6871C166.657 62.6871 166.503 62.6222 166.389 62.5065C166.275 62.3909 166.211 62.2341 166.211 62.0705V57.3285C166.211 57.165 166.275 57.0081 166.389 56.8925C166.503 56.7769 166.657 56.7119 166.818 56.7119C166.979 56.7119 167.134 56.7769 167.248 56.8925C167.362 57.0081 167.426 57.165 167.426 57.3285V62.0705C167.426 62.1515 167.41 62.2318 167.379 62.3066C167.349 62.3815 167.304 62.4495 167.248 62.5068C167.191 62.564 167.124 62.6095 167.051 62.6404C166.977 62.6714 166.898 62.6872 166.818 62.6871Z" fill="#808189"/>
</g>
<defs>
<filter id="filter0_dd_3740_57490" x="46" y="22" width="184" height="60" filterUnits="userSpaceOnUse" color-interpolation-filters="sRGB">
<feFlood flood-opacity="0" result="BackgroundImageFix"/>
<feColorMatrix in="SourceAlpha" type="matrix" values="0 0 0 0 0 0 0 0 0 0 0 0 0 0 0 0 0 0 127 0" result="hardAlpha"/>
<feOffset/>
<feGaussianBlur stdDeviation="0.5"/>
<feColorMatrix type="matrix" values="0 0 0 0 0.341176 0 0 0 0 0.447059 0 0 0 0 0.498039 0 0 0 0.48 0"/>
<feBlend mode="normal" in2="BackgroundImageFix" result="effect1_dropShadow_3740_57490"/>
<feColorMatrix in="SourceAlpha" type="matrix" values="0 0 0 0 0 0 0 0 0 0 0 0 0 0 0 0 0 0 127 0" result="hardAlpha"/>
<feOffset dy="2"/>
<feGaussianBlur stdDeviation="8"/>
<feColorMatrix type="matrix" values="0 0 0 0 0.341176 0 0 0 0 0.447059 0 0 0 0 0.498039 0 0 0 0.24 0"/>
<feBlend mode="normal" in2="effect1_dropShadow_3740_57490" result="effect2_dropShadow_3740_57490"/>
<feBlend mode="normal" in="SourceGraphic" in2="effect2_dropShadow_3740_57490" result="shape"/>
</filter>
<clipPath id="clip0_3740_57490">
<rect width="18" height="21" fill="white" transform="translate(153 47)"/>
</clipPath>
</defs>
</svg>
