<svg width="28" height="28" viewBox="0 0 28 28" fill="none" xmlns="http://www.w3.org/2000/svg">
<path fill-rule="evenodd" clip-rule="evenodd" d="M2.79844 4.20312H11.7423C12.2678 4.20312 12.7491 4.49741 12.9885 4.96519L14.0318 7.00312H25.1984C25.9716 7.00312 26.5984 7.62993 26.5984 8.40312V23.8031C26.5984 24.5763 25.9716 25.2031 25.1984 25.2031H2.79844C2.02524 25.2031 1.39844 24.5763 1.39844 23.8031V5.60312C1.39844 4.82993 2.02524 4.20312 2.79844 4.20312ZM4.19844 22.4031H23.7984V9.80313H12.3195L10.8862 7.00313H4.19844V22.4031ZM19.4848 19.9236C18.824 20.1766 18.1547 20.3031 17.477 20.3031C16.6158 20.3031 15.8651 20.1249 15.2248 19.7684C14.5846 19.412 14.1034 18.9022 13.7814 18.2391C13.4594 17.5761 13.2984 16.8548 13.2984 16.0754C13.2984 15.2295 13.4782 14.4778 13.8376 13.8203C14.1971 13.1628 14.7231 12.6585 15.4158 12.3076C15.9437 12.038 16.6008 11.9031 17.3871 11.9031C18.4093 11.9031 19.2078 12.1146 19.7825 12.5376C20.3572 12.9605 20.727 13.5451 20.8917 14.2913L19.2405 14.596C19.1245 14.1971 18.9064 13.8821 18.5862 13.6513C18.2661 13.4204 17.8664 13.305 17.3871 13.305C16.6608 13.305 16.0832 13.5321 15.6545 13.9865C15.2258 14.4409 15.0114 15.115 15.0114 16.0089C15.0114 16.973 15.2286 17.6961 15.6629 18.1782C16.0972 18.6602 16.6664 18.9013 17.3703 18.9013C17.7185 18.9013 18.0676 18.8339 18.4177 18.699C18.7678 18.5642 19.0683 18.4008 19.3192 18.2087V17.1781H17.4152V15.8095H20.9984V19.0453C20.6502 19.3778 20.1457 19.6705 19.4848 19.9236Z" fill="#8C76C6"/>
</svg>
