<svg width="20" height="20" viewBox="0 0 20 20" fill="#67686F" xmlns="http://www.w3.org/2000/svg">
    <path fill-rule="evenodd" clip-rule="evenodd" d="M12.0505 7.28027C11.5395 6.84298 11.1772 6.23694 11.05 5.54847L7.08157 7.83966C7.56457 8.30515 7.89186 8.93111 7.97762 9.63172L12.0505 7.28027ZM7.08157 12.1603C7.56457 11.6948 7.89186 11.0689 7.97762 10.3683L12.0505 12.7197C11.5395 13.157 11.1772 13.7631 11.05 14.4515L7.08157 12.1603ZM14 16C14.5523 16 15 15.5523 15 15C15 14.4477 14.5523 14 14 14C13.4477 14 13 14.4477 13 15C13 15.5523 13.4477 16 14 16ZM14 18C12.3431 18 11 16.6569 11 15C11 13.3431 12.3431 12 14 12C15.6569 12 17 13.3431 17 15C17 16.6569 15.6569 18 14 18ZM5 11C5.55228 11 6 10.5523 6 10C6 9.44772 5.55228 9 5 9C4.44772 9 4 9.44772 4 10C4 10.5523 4.44772 11 5 11ZM5 13C3.34315 13 2 11.6569 2 10C2 8.34315 3.34315 7 5 7C6.65685 7 8 8.34315 8 10C8 11.6569 6.65685 13 5 13ZM14 6C14.5523 6 15 5.55228 15 5C15 4.44772 14.5523 4 14 4C13.4477 4 13 4.44772 13 5C13 5.55228 13.4477 6 14 6ZM14 8C12.3431 8 11 6.65685 11 5C11 3.34315 12.3431 2 14 2C15.6569 2 17 3.34315 17 5C17 6.65685 15.6569 8 14 8Z"/>
</svg>
