<svg width="16" height="16" viewBox="0 0 16 16" fill="none" xmlns="http://www.w3.org/2000/svg">
<path fill-rule="evenodd" clip-rule="evenodd" d="M16 6.00001C16 5.44772 15.5523 5.00001 15 5.00001L1 5.00001C0.447715 5.00001 0 5.44772 0 6.00001C0 6.55229 0.447715 7.00001 1 7.00001L15 7.00001C15.5523 7.00001 16 6.55229 16 6.00001ZM11.0001 3L8.00005 0L5.00005 3L11.0001 3ZM7.99995 16.0012L4.99995 13.0012H10.9999L7.99995 16.0012ZM16 10C16 9.44772 15.5523 9.00001 15 9.00001L1 9.00001C0.447715 9.00001 0 9.44772 0 10C0 10.5523 0.447715 11 1 11L15 11C15.5523 11 16 10.5523 16 10Z" fill="#67686F"/>
</svg>
