<svg xmlns="http://www.w3.org/2000/svg" width="16.136" height="17" viewBox="0 0 16.136 17"><defs><style>.a{fill:#6b6e74;stroke:rgba(0,0,0,0);stroke-miterlimit:10;}</style></defs><path d="M-6231.665-1063.841a3.892,3.892,0,0,1,3.892-3.892,3.892,3.892,0,0,1,3.892,3.892,3.892,3.892,0,0,1-3.892,3.892A3.892,3.892,0,0,1-6231.665-1063.841Zm1.729.433h1.73v1.729h.864v-1.729h1.731v-.865h-1.731V-1066h-.864v1.729h-1.73Zm-6.487,1.3a2.6,2.6,0,0,1-2.595-2.595v-8.649a2.6,2.6,0,0,1,2.595-2.595h8.649a2.6,2.6,0,0,1,2.594,2.595v5.019a5.164,5.164,0,0,0-1.73-.623v-4.4a.866.866,0,0,0-.865-.865h-8.649a.866.866,0,0,0-.864.865v8.649a.865.865,0,0,0,.864.864h3.46a5.172,5.172,0,0,0,.3,1.731Z" transform="translate(6239.517 1076.449)"/></svg>
