<svg xmlns="http://www.w3.org/2000/svg" width="17.102" height="16.821" viewBox="0 0 17.102 16.821"><defs><style>.a{fill:#6b6e74;stroke:rgba(0,0,0,0);stroke-miterlimit:10;}</style></defs><path class="a" d="M-5815.662-747.013a3.833,3.833,0,0,1,3.831-3.834,3.832,3.832,0,0,1,3.831,3.834,3.832,3.832,0,0,1-3.831,3.834A3.833,3.833,0,0,1-5815.662-747.013Zm1.7.426h1.7v1.7h.851v-1.7h1.7v-.852h-1.7v-1.7h-.851v1.7h-1.7Zm-10.042-7.3q3.431-5.11,7.662-5.111t7.662,5.111a17.392,17.392,0,0,1-1.655,2.111,4.97,4.97,0,0,0-1.5-.23,4.9,4.9,0,0,0-.8.072,11.7,11.7,0,0,0,1.862-1.952c-1.785-2.321-3.632-3.407-5.565-3.407s-3.781,1.086-5.566,3.407c1.785,2.322,3.631,3.408,5.566,3.408a4.994,4.994,0,0,0,1.041-.121,5,5,0,0,0-1.195,1.813Q-5820.631-748.88-5824-753.889Zm5.107,0a2.555,2.555,0,0,1,2.555-2.556,2.555,2.555,0,0,1,2.554,2.556,2.555,2.555,0,0,1-2.554,2.555A2.555,2.555,0,0,1-5818.893-753.887Z" transform="translate(5824.602 759.5)"/></svg>