<svg width="12" height="7" viewBox="0 0 12 7" fill="none" xmlns="http://www.w3.org/2000/svg">
<path d="M1.44482 2.24658V3.24414H2.79834V6.0083H1.44482V7.00146H5.3208V6.0083H4.0332V2.24658H1.44482ZM2.71045 1.0293C2.71045 1.12305 2.72656 1.21094 2.75879 1.29297C2.79395 1.37207 2.84229 1.43945 2.90381 1.49512C2.96533 1.55371 3.03857 1.59912 3.12354 1.63135C3.21143 1.66357 3.30811 1.67969 3.41357 1.67969C3.63037 1.67969 3.80176 1.61963 3.92773 1.49951C4.05664 1.37646 4.12109 1.21973 4.12109 1.0293C4.12109 0.838867 4.05664 0.683594 3.92773 0.563477C3.80176 0.44043 3.63037 0.378906 3.41357 0.378906C3.30811 0.378906 3.21143 0.39502 3.12354 0.427246C3.03857 0.459473 2.96533 0.503418 2.90381 0.559082C2.84229 0.617676 2.79395 0.687988 2.75879 0.77002C2.72656 0.849121 2.71045 0.935547 2.71045 1.0293Z" fill="#57727F"/>
<path d="M6.5249 7.00146H7.75098V3.62207C7.79199 3.55762 7.8374 3.49902 7.88721 3.44629C7.93701 3.39355 7.99268 3.34814 8.0542 3.31006C8.13037 3.25732 8.2168 3.21777 8.31348 3.19141C8.41309 3.16504 8.52148 3.15186 8.63867 3.15186C8.7793 3.15186 8.90527 3.1665 9.0166 3.1958C9.12793 3.22217 9.22314 3.27051 9.30225 3.34082C9.38135 3.41113 9.44141 3.50781 9.48242 3.63086C9.52637 3.75098 9.54834 3.90479 9.54834 4.09229V7.00146H10.77V4.07471C10.77 3.729 10.729 3.43604 10.647 3.1958C10.5679 2.95264 10.4565 2.75342 10.313 2.59814C10.1665 2.4458 9.99365 2.33447 9.79443 2.26416C9.59521 2.19385 9.37549 2.15869 9.13525 2.15869C8.94775 2.15869 8.77051 2.18506 8.60352 2.23779C8.43652 2.29053 8.28271 2.3667 8.14209 2.46631C8.06006 2.5249 7.98242 2.59082 7.90918 2.66406C7.83594 2.7373 7.76855 2.81787 7.70703 2.90576L7.63232 2.24658H6.5249V7.00146Z" fill="#57727F"/>
<path d="M0.5 4.5H6H11.3062V5.19971H0.5V4.5Z" fill="#57727F"/>
</svg>
