<svg width="20" height="20" viewBox="0 0 20 20" fill="none" xmlns="http://www.w3.org/2000/svg">
<path fill-rule="evenodd" clip-rule="evenodd" d="M8 1H12C12.5523 1 13 1.44772 13 2C13 2.55228 12.5523 3 12 3H11V4.06189C12.4607 4.24404 13.7991 4.81999 14.9056 5.68014L16.364 4.22183L17.7782 5.63604L16.3199 7.09436C17.3729 8.44904 18 10.1513 18 12C18 16.4183 14.4183 20 10 20C5.58172 20 2 16.4183 2 12C2 7.92038 5.05369 4.55399 9 4.06189V3H8C7.44772 3 7 2.55228 7 2C7 1.44772 7.44772 1 8 1ZM16 12C16 15.3137 13.3137 18 10 18C6.68629 18 4 15.3137 4 12C4 8.68629 6.68629 6 10 6C13.3137 6 16 8.68629 16 12ZM10 17C10.5523 17 11 16.5523 11 16C11 15.4477 10.5523 15 10 15C9.44772 15 9 15.4477 9 16C9 16.5523 9.44772 17 10 17ZM7 12C7 12.5523 6.55228 13 6 13C5.44772 13 5 12.5523 5 12C5 11.4477 5.44772 11 6 11C6.55228 11 7 11.4477 7 12ZM14 12C14 9.79086 12.2091 8 10 8V12H14Z" fill="#8C76C6"/>
</svg>
