<svg width="20" height="20" viewBox="0 0 20 20" fill="#FFAE0A" xmlns="http://www.w3.org/2000/svg">
<g clip-path="url(#clip0_3241_63024)">
<path d="M1.05357 18.7529C0.663354 18.7529 0.366787 18.582 0.163872 18.2402C-0.0398226 17.8991 -0.0441151 17.5581 0.150995 17.217L9.12645 1.75377C9.32156 1.41271 9.61423 1.24219 10.0044 1.24219C10.3947 1.24219 10.6873 1.41271 10.8824 1.75377L19.8579 17.217C20.053 17.5581 20.0487 17.8991 19.845 18.2402C19.6421 18.582 19.3455 18.7529 18.9553 18.7529H1.05357ZM10.029 8.04607C9.75275 8.04607 9.51277 8.14791 9.30907 8.35161C9.10616 8.55452 9.0047 8.79412 9.0047 9.0704V11.8015C9.0047 12.0786 9.10616 12.3186 9.30907 12.5215C9.51277 12.7252 9.75275 12.827 10.029 12.827C10.3053 12.827 10.5449 12.7252 10.7478 12.5215C10.9515 12.3186 11.0534 12.0786 11.0534 11.8015V9.0704C11.0534 8.79412 10.9515 8.55452 10.7478 8.35161C10.5449 8.14791 10.3053 8.04607 10.029 8.04607ZM10.029 15.8263C10.3053 15.8263 10.5449 15.7248 10.7478 15.5219C10.9515 15.3182 11.0534 15.0782 11.0534 14.8019C11.0534 14.5257 10.9515 14.2857 10.7478 14.082C10.5449 13.8791 10.3053 13.7776 10.029 13.7776C9.75275 13.7776 9.51277 13.8791 9.30907 14.082C9.10616 14.2857 9.0047 14.5257 9.0047 14.8019C9.0047 15.0782 9.10616 15.3182 9.30907 15.5219C9.51277 15.7248 9.75275 15.8263 10.029 15.8263ZM2.80957 16.7043H17.1993L10.0044 4.31517L2.80957 16.7043Z"/>
</g>
<defs>
<clipPath id="clip0_3241_63024">
<rect width="20" height="20" fill="white"/>
</clipPath>
</defs>
</svg>
