<svg xmlns="http://www.w3.org/2000/svg" width="10" height="16" viewBox="0 0 10 16"><path d="M2-4A2,2,0,0,1,4-2,2,2,0,0,1,2,0,2,2,0,0,1,0-2,2,2,0,0,1,2-4ZM8-4a2,2,0,0,1,2,2A2,2,0,0,1,8,0,2,2,0,0,1,6-2,2,2,0,0,1,8-4ZM2-10A2,2,0,0,1,4-8,2,2,0,0,1,2-6,2,2,0,0,1,0-8,2,2,0,0,1,2-10Zm6,0a2,2,0,0,1,2,2A2,2,0,0,1,8-6,2,2,0,0,1,6-8,2,2,0,0,1,8-10ZM2-16a2,2,0,0,1,2,2,2,2,0,0,1-2,2,2,2,0,0,1-2-2A2,2,0,0,1,2-16Zm6,0a2,2,0,0,1,2,2,2,2,0,0,1-2,2,2,2,0,0,1-2-2A2,2,0,0,1,8-16Z" transform="translate(0 16)"/></svg>
