<svg width="16" height="18" viewBox="0 0 16 18" fill="none" xmlns="http://www.w3.org/2000/svg">
<mask id="path-1-inside-1_1675_16907" fill="white">
<path fill-rule="evenodd" clip-rule="evenodd" d="M16 0H0L5 8V13L11 18V8L16 0Z"/>
</mask>
<path d="M0 0V-2H-3.6085L-1.696 1.06L0 0ZM16 0L17.696 1.06L19.6085 -2H16V0ZM5 8H7V7.42641L6.696 6.94L5 8ZM5 13H3V13.9367L3.71963 14.5364L5 13ZM11 18L9.71963 19.5364L13 22.2701V18H11ZM11 8L9.304 6.94L9 7.42641V8H11ZM0 2H16V-2H0V2ZM6.696 6.94L1.696 -1.06L-1.696 1.06L3.304 9.06L6.696 6.94ZM7 13V8H3V13H7ZM12.2804 16.4636L6.28037 11.4636L3.71963 14.5364L9.71963 19.5364L12.2804 16.4636ZM9 8V18H13V8H9ZM14.304 -1.06L9.304 6.94L12.696 9.06L17.696 1.06L14.304 -1.06Z" fill="#67686F" mask="url(#path-1-inside-1_1675_16907)"/>
</svg>
