<svg width="20" height="20" viewBox="0 0 20 20" fill="none" xmlns="http://www.w3.org/2000/svg">
<path fill-rule="evenodd" clip-rule="evenodd" d="M1 10C1 14.9706 5.02944 19 10 19C14.9706 19 19 14.9706 19 10C19 5.02944 14.9706 1 10 1C5.02944 1 1 5.02944 1 10ZM10 17C13.866 17 17 13.866 17 10C17 6.13401 13.866 3 10 3C6.13401 3 3 6.13401 3 10C3 13.866 6.13401 17 10 17ZM10 5C9.44771 5 9 5.44772 9 6V9V11H11H14C14.5523 11 15 10.5523 15 10C15 9.44772 14.5523 9 14 9H11V6C11 5.44772 10.5523 5 10 5Z" fill="#8C76C6"/>
</svg>
