<svg width="12" height="12" viewBox="0 0 12 12" fill="none" xmlns="http://www.w3.org/2000/svg">
<path fill-rule="evenodd" clip-rule="evenodd" d="M4.5 6L0.707106 9.79289C0.316582 10.1834 0.316582 10.8166 0.707107 11.2071L0.792893 11.2929C1.18342 11.6834 1.81658 11.6834 2.20711 11.2929L6 7.5L9.79289 11.2929C10.1834 11.6834 10.8166 11.6834 11.2071 11.2929L11.2929 11.2071C11.6834 10.8166 11.6834 10.1834 11.2929 9.79289L7.5 6L11.2929 2.20711C11.6834 1.81658 11.6834 1.18342 11.2929 0.792893L11.2071 0.707107C10.8166 0.316583 10.1834 0.316583 9.79289 0.707107L6 4.5L2.20711 0.707106C1.81658 0.316582 1.18342 0.316582 0.792893 0.707107L0.707107 0.792893C0.316583 1.18342 0.316583 1.81658 0.707107 2.20711L4.5 6Z" fill="#FFFFFF"/>
</svg>
