<svg width="20" height="20" viewBox="0 0 20 20" fill="#B5B5BA" xmlns="http://www.w3.org/2000/svg">
<path d="M7.55 15.575C7.41667 15.575 7.29167 15.554 7.175 15.512C7.05833 15.4707 6.95 15.4 6.85 15.3L2.55 11C2.36667 10.8167 2.279 10.579 2.287 10.287C2.29567 9.99567 2.39167 9.75833 2.575 9.575C2.75833 9.39167 2.99167 9.3 3.275 9.3C3.55833 9.3 3.79167 9.39167 3.975 9.575L7.55 13.15L16.025 4.675C16.2083 4.49167 16.446 4.4 16.738 4.4C17.0293 4.4 17.2667 4.49167 17.45 4.675C17.6333 4.85833 17.725 5.09567 17.725 5.387C17.725 5.679 17.6333 5.91667 17.45 6.1L8.25 15.3C8.15 15.4 8.04167 15.4707 7.925 15.512C7.80833 15.554 7.68333 15.575 7.55 15.575Z" />
</svg>
