<svg width="32" height="32" viewBox="0 0 32 32" xmlns="http://www.w3.org/2000/svg">
<path opacity="0.702" d="M27.1147 6.12339L21.8721 0.88084C21.3107 0.317875 20.5488 0.000766404 19.7538 -0.000823975L6.99504 -0.000823975C6.20021 0.00306282 5.43918 0.321204 4.87806 0.884163C4.31694 1.44712 4.00129 2.20919 4 3.00403L4 29.0009C4 29.7965 4.31607 30.5595 4.87866 31.1221C5.44126 31.6847 6.20431 32.0008 6.99995 32.0008H24.9931C25.7892 32.0008 26.5527 31.6849 27.1161 31.1224C27.6795 30.56 27.9967 29.7969 27.998 29.0009V8.24658C27.9953 7.45001 27.6778 6.68681 27.1147 6.12339ZM19.9975 3.24939L24.7526 8.00449H19.9975V3.24939ZM24.9996 29.0009H7.00649V3.00403H16.9976V9.50447C16.9972 9.70157 17.0357 9.89681 17.1109 10.079C17.1861 10.2612 17.2966 10.4267 17.436 10.5661C17.5753 10.7054 17.7409 10.8159 17.923 10.8911C18.1052 10.9664 18.3005 11.0049 18.4976 11.0044H24.9996V29.0009ZM14.0009 16.0998C13.1157 16.2803 12.2959 16.6972 11.6287 17.3063C10.9615 17.9154 10.4718 18.6939 10.2115 19.559C9.9513 20.4242 9.93031 21.3436 10.1508 22.2197C10.3713 23.0959 10.825 23.8959 11.4637 24.5348C12.1024 25.1737 12.9023 25.6276 13.7784 25.8483C14.6544 26.069 15.5739 26.0483 16.4391 25.7883C17.3043 25.5283 18.0829 25.0388 18.6922 24.3718C19.3015 23.7047 19.7186 22.885 19.8994 21.9999H14.0009V16.0998ZM15.9998 14.0993V19.9994H21.8999C22.0649 19.1895 22.0267 18.3513 21.7886 17.5598C21.5505 16.7683 21.12 16.0481 20.5356 15.4636C19.9511 14.8792 19.2309 14.4486 18.4394 14.2106C17.6479 13.9725 16.8097 13.9342 15.9998 14.0993Z"/>
</svg>
