<svg xmlns="http://www.w3.org/2000/svg" width="20" height="20" viewBox="0 0 20 20">
	<defs>
		<style>.nav-icon-a-1{fill:#2D3039;opacity:0.699;}</style>
	</defs>
	<path class="nav-icon-a-1"
				d="M10-20A10,10,0,0,1,20-10,10,10,0,0,1,10,0,10,10,0,0,1,0-10,10,10,0,0,1,10-20ZM10-5q-.183,0-.362-.013l.06,0h0L8.911-2.074A8.072,8.072,0,0,0,10-2a8.072,8.072,0,0,0,1.089-.074L10.3-5.009l.06,0Q10.183-5,10-5ZM5.526-7.766,2.59-6.979A8.027,8.027,0,0,0,6.979-2.59l.787-2.936A5.014,5.014,0,0,1,5.521-7.775Zm6.7,2.245.009,0,.787,2.936A8.027,8.027,0,0,0,17.41-6.979l-2.936-.787A5.014,5.014,0,0,1,12.225-5.521ZM10-13a3,3,0,0,0-3,3,3,3,0,0,0,3,3,3,3,0,0,0,3-3A3,3,0,0,0,10-13ZM2-10a8.072,8.072,0,0,0,.074,1.089L5.009-9.7l0,.06Q5-9.817,5-10t.013-.362l0,.06h0l-2.935-.787A8.072,8.072,0,0,0,2-10Zm15.926-1.089-2.935.787q.009.15.009.3,0,.183-.013.362l0-.06h0l2.935.787A8.071,8.071,0,0,0,18-10,8.071,8.071,0,0,0,17.926-11.089ZM7.766-14.474,6.979-17.41A8.027,8.027,0,0,0,2.59-13.021l2.936.787a5.014,5.014,0,0,1,2.249-2.245Zm5.255-2.936-.787,2.936L12.2-14.49a5.021,5.021,0,0,1,2.272,2.256l2.936-.787A8.027,8.027,0,0,0,13.021-17.41ZM10-18a8.071,8.071,0,0,0-1.089.074L9.7-14.991l-.06,0Q9.817-15,10-15t.381.014l-.079-.005h0l.787-2.935A8.071,8.071,0,0,0,10-18Z"
				transform="translate(0 20)"/>
</svg>
