<svg width="20" height="20" viewBox="0 0 20 20" fill="none" xmlns="http://www.w3.org/2000/svg">
<path fill-rule="evenodd" clip-rule="evenodd" d="M10 19C5.02944 19 1 14.9706 1 10C1 5.02944 5.02944 1 10 1C14.9706 1 19 5.02944 19 10C19 14.9706 14.9706 19 10 19ZM10 17C13.866 17 17 13.866 17 10C17 8.42766 16.4816 6.97641 15.6064 5.80783L5.80783 15.6064C6.97641 16.4816 8.42766 17 10 17ZM4.39362 14.1922C3.5184 13.0236 3 11.5723 3 10C3 6.13401 6.13401 3 10 3C11.5723 3 13.0236 3.5184 14.1922 4.39362L4.39362 14.1922Z" fill="#8C76C6"/>
</svg>
