<svg width="34" height="34" viewBox="0 0 34 34" fill="#1D54EC" xmlns="http://www.w3.org/2000/svg">
<path d="M17 15.5C17.3978 15.5 17.7794 15.658 18.0607 15.9393C18.342 16.2206 18.5 16.6022 18.5 17V22C18.5 22.3978 18.342 22.7794 18.0607 23.0607C17.7794 23.342 17.3978 23.5 17 23.5C16.6022 23.5 16.2206 23.342 15.9393 23.0607C15.658 22.7794 15.5 22.3978 15.5 22V17C15.5 16.6022 15.658 16.2206 15.9393 15.9393C16.2206 15.658 16.6022 15.5 17 15.5Z"/>
<path d="M17 13.5C16.6022 13.5 16.2206 13.342 15.9393 13.0607C15.658 12.7794 15.5 12.3978 15.5 12C15.5 11.6022 15.658 11.2206 15.9393 10.9393C16.2206 10.658 16.6022 10.5 17 10.5C17.3978 10.5 17.7794 10.658 18.0607 10.9393C18.342 11.2206 18.5 11.6022 18.5 12C18.5 12.3978 18.342 12.7794 18.0607 13.0607C17.7794 13.342 17.3978 13.5 17 13.5Z"/>
<path fill-rule="evenodd" clip-rule="evenodd" d="M5 9C5 6.79086 6.79086 5 9 5H25C27.2091 5 29 6.79086 29 9V25C29 27.2091 27.2091 29 25 29H9C6.79086 29 5 27.2091 5 25V9ZM9 7H25C26.1046 7 27 7.89543 27 9V25C27 26.1046 26.1046 27 25 27H9C7.89543 27 7 26.1046 7 25V9C7 7.89543 7.89543 7 9 7Z"/>
</svg>
