<svg width="19" height="19" viewBox="0 0 19 19" fill="none" xmlns="http://www.w3.org/2000/svg">
<path d="M5.41667 17.9167H2.91667C2.47464 17.9167 2.05072 17.7411 1.73816 17.4285C1.42559 17.1159 1.25 16.692 1.25 16.25V10.4167C1.25 9.97464 1.42559 9.55072 1.73816 9.23816C2.05072 8.92559 2.47464 8.75 2.91667 8.75H5.41667M11.25 7.08333V3.75C11.25 3.08696 10.9866 2.45107 10.5178 1.98223C10.0489 1.51339 9.41304 1.25 8.75 1.25L5.41667 8.75V17.9167H14.8167C15.2186 17.9212 15.6086 17.7803 15.9149 17.52C16.2212 17.2597 16.4231 16.8974 16.4833 16.5L17.6333 9C17.6696 8.76113 17.6535 8.51723 17.5861 8.28521C17.5188 8.05318 17.4018 7.83858 17.2432 7.65626C17.0847 7.47394 16.8884 7.32828 16.668 7.22935C16.4476 7.13042 16.2083 7.0806 15.9667 7.08333H11.25Z" stroke="#583F99" stroke-width="2" stroke-linecap="round" stroke-linejoin="round"/>
</svg>
