<svg width="15" height="16" viewBox="0 0 15 16" fill="none" xmlns="http://www.w3.org/2000/svg">
<path fill-rule="evenodd" clip-rule="evenodd" d="M14.7 8.17472C14.7 7.6429 14.6523 7.13153 14.5636 6.64062H7.5V9.54176H11.5364C11.3625 10.4793 10.8341 11.2736 10.0398 11.8054V13.6872H12.4636C13.8818 12.3815 14.7 10.4588 14.7 8.17472Z" fill="#4285F4"/>
<path fill-rule="evenodd" clip-rule="evenodd" d="M7.49915 15.4969C9.52415 15.4969 11.2219 14.8253 12.4628 13.6798L10.0389 11.798C9.36733 12.248 8.50824 12.5139 7.49915 12.5139C5.54574 12.5139 3.89233 11.1946 3.30256 9.42188H0.796875V11.3651C2.03097 13.8162 4.56733 15.4969 7.49915 15.4969Z" fill="#34A853"/>
<path fill-rule="evenodd" clip-rule="evenodd" d="M3.30341 9.42599C3.15341 8.97599 3.06818 8.49531 3.06818 8.00099C3.06818 7.50668 3.15341 7.02599 3.30341 6.57599V4.63281H0.797727C0.289773 5.64531 0 6.79077 0 8.00099C0 9.21122 0.289773 10.3567 0.797727 11.3692L3.30341 9.42599Z" fill="#FBBC05"/>
<path fill-rule="evenodd" clip-rule="evenodd" d="M7.49915 3.48295C8.60029 3.48295 9.58892 3.86136 10.3662 4.60455L12.5173 2.45341C11.2185 1.24318 9.52074 0.5 7.49915 0.5C4.56733 0.5 2.03097 2.18068 0.796875 4.63182L3.30256 6.575C3.89233 4.80227 5.54574 3.48295 7.49915 3.48295Z" fill="#EA4335"/>
</svg>
