<svg xmlns="http://www.w3.org/2000/svg" width="17" height="16.999" viewBox="0 0 17 16.999" fill="#67686F"><defs></defs><path d="M-6284.956-1035.449a8,8,0,0,1,8-8,8,8,0,0,1,8,8,8,8,0,0,1-8,8A8,8,0,0,1-6284.956-1035.449Zm1.777,0a6.222,6.222,0,0,0,6.223,6.222,6.223,6.223,0,0,0,6.222-6.222,6.222,6.222,0,0,0-6.222-6.222A6.222,6.222,0,0,0-6283.179-1035.449Zm3.556.889a.888.888,0,0,1-.889-.889.889.889,0,0,1,.889-.889h5.333a.888.888,0,0,1,.889.889.887.887,0,0,1-.889.889Z" transform="translate(6285.456 1043.948)"/></svg>
