<svg width="32" height="24" viewBox="0 0 32 24" xmlns="http://www.w3.org/2000/svg">
<path opacity="0.702" d="M29 24C29.8 24 30.5 23.7 31.1 23.1C31.7 22.5 32 21.8 32 21V3C32 2.2 31.7 1.4 31.1 0.9C30.6 0.3 29.8 0 29 0H3C2.2 0 1.4 0.3 0.9 0.9C0.3 1.4 0 2.2 0 3V21C0 21.8 0.3 22.6 0.9 23.1C1.4 23.7 2.2 24 3 24H29ZM3 21V3H29V21H3Z"/>
<g opacity="0.702">
<path opacity="0.702" d="M14.0001 8.09998C13.1001 8.29998 12.3001 8.69998 11.6001 9.29998C10.9001 9.89998 10.4001 10.7 10.2001 11.6C9.90008 12.5 9.90008 13.4 10.1001 14.3C10.3001 15.2 10.8001 16 11.4001 16.6C12.0001 17.2 12.8001 17.7 13.7001 17.9C14.6001 18.1 15.5001 18.1 16.4001 17.8C17.3001 17.5 18.0001 17.1 18.7001 16.4C19.3001 15.7 19.7001 14.9 19.9001 14H14.0001V8.09998Z"/>
<path opacity="0.702" d="M16 6.09999V12H21.9C22.1 11.2 22 10.4 21.8 9.59999C21.6 8.79999 21.1 8.09999 20.5 7.49999C19.9 6.89999 19.2 6.49999 18.4 6.19999C17.6 5.89999 16.8 5.89999 16 6.09999Z"/>
</g>
</svg>
