<svg width="20" height="20" viewBox="0 0 20 20" fill="#B5B5BA" xmlns="http://www.w3.org/2000/svg">
    <path d="M4.91992 5.87639V14.3867H2.94531V8.0975L1 8.66447V7.16814L4.73828 5.87639H4.91992Z"/>
    <path d="M12.1289 12.7618V14.2815H6.17578V12.9956L8.91797 10.1199C9.16016 9.84322 9.35547 9.59578 9.50391 9.37756C9.65234 9.15545 9.75977 8.95477 9.82617 8.77553C9.89648 8.59628 9.93164 8.43457 9.93164 8.29039C9.93164 8.0449 9.89453 7.84032 9.82031 7.67666C9.75 7.5091 9.64453 7.38246 9.50391 7.29673C9.36719 7.21101 9.19727 7.16814 8.99414 7.16814C8.79102 7.16814 8.61328 7.22659 8.46094 7.34349C8.30859 7.46039 8.18945 7.62016 8.10352 7.82279C8.02148 8.02541 7.98047 8.25337 7.98047 8.50665H6C6 7.9845 6.12695 7.50715 6.38086 7.07462C6.63867 6.64209 6.99609 6.29724 7.45312 6.04005C7.91016 5.77898 8.43945 5.64844 9.04102 5.64844C9.66992 5.64844 10.1973 5.74585 10.623 5.94069C11.0488 6.13552 11.3691 6.41803 11.584 6.78822C11.8027 7.15451 11.9121 7.59678 11.9121 8.11504C11.9121 8.41119 11.8652 8.69564 11.7715 8.96841C11.6777 9.24118 11.543 9.512 11.3672 9.78087C11.1914 10.0458 10.9766 10.3186 10.7227 10.5992C10.4727 10.8797 10.1875 11.1778 9.86719 11.4935L8.76562 12.7618H12.1289Z"/>
    <path d="M14.788 9.20221H15.749C15.9951 9.20221 16.1963 9.15935 16.3525 9.07362C16.5127 8.984 16.6318 8.8593 16.7099 8.69954C16.788 8.53588 16.8271 8.34299 16.8271 8.12088C16.8271 7.94943 16.79 7.79161 16.7158 7.64744C16.6455 7.50326 16.5361 7.38831 16.3877 7.30258C16.2392 7.21296 16.0498 7.16814 15.8193 7.16814C15.663 7.16814 15.5107 7.20127 15.3623 7.26751C15.2138 7.32986 15.0908 7.41948 14.9931 7.53638C14.8994 7.65328 14.8525 7.79551 14.8525 7.96307H12.872C12.872 7.47988 13.0048 7.06683 13.2705 6.72392C13.54 6.37712 13.8935 6.11214 14.331 5.929C14.7724 5.74196 15.247 5.64844 15.7548 5.64844C16.3603 5.64844 16.8916 5.74196 17.3486 5.929C17.8056 6.11214 18.1611 6.38491 18.415 6.7473C18.6728 7.1058 18.8017 7.55002 18.8017 8.07997C18.8017 8.37222 18.7334 8.64693 18.5966 8.90412C18.4599 9.1613 18.2685 9.3873 18.0224 9.58214C17.7763 9.77697 17.4873 9.93089 17.1552 10.0439C16.8271 10.153 16.4677 10.2076 16.0771 10.2076H14.788V9.20221ZM14.788 10.6693V9.68735H16.0771C16.5029 9.68735 16.8916 9.73606 17.2431 9.83347C17.5947 9.92699 17.8974 10.0673 18.1513 10.2543C18.4052 10.4414 18.6005 10.6732 18.7373 10.9499C18.874 11.2226 18.9423 11.5363 18.9423 11.8909C18.9423 12.2884 18.8623 12.643 18.7021 12.9547C18.542 13.2665 18.3173 13.5295 18.0283 13.7438C17.7392 13.9581 17.4013 14.1218 17.0146 14.2348C16.6279 14.3439 16.208 14.3984 15.7548 14.3984C15.3994 14.3984 15.0439 14.3517 14.6884 14.2582C14.333 14.1607 14.0088 14.0127 13.7158 13.8139C13.4228 13.6113 13.1865 13.3541 13.0068 13.0424C12.831 12.7268 12.7431 12.3507 12.7431 11.9143H14.7236C14.7236 12.0936 14.7724 12.2572 14.8701 12.4053C14.9716 12.5495 15.1064 12.6644 15.2744 12.7501C15.4423 12.8359 15.624 12.8787 15.8193 12.8787C16.0615 12.8787 16.2666 12.8339 16.4345 12.7443C16.6064 12.6508 16.7373 12.5261 16.8271 12.3702C16.917 12.2143 16.9619 12.0409 16.9619 11.85C16.9619 11.5617 16.913 11.3317 16.8154 11.1603C16.7216 10.9888 16.583 10.8641 16.3994 10.7862C16.2197 10.7083 16.0029 10.6693 15.749 10.6693H14.788Z"/>
</svg>
