<svg width="20" height="20" viewBox="0 0 20 20" fill="#B5B5BA" xmlns="http://www.w3.org/2000/svg">
<path fill-rule="evenodd" clip-rule="evenodd" d="M6 2C6 1.44772 6.44772 1 7 1C7.55228 1 8 1.44772 8 2V3H12V2C12 1.44772 12.4477 1 13 1C13.5523 1 14 1.44772 14 2V3H17C18.1046 3 19 3.89543 19 5V8V10V17C19 18.1046 18.1046 19 17 19H3C1.89543 19 1 18.1046 1 17V10V8V5C1 3.89543 1.89543 3 3 3H6V2ZM12 5V6C12 6.55228 12.4477 7 13 7C13.5523 7 14 6.55228 14 6V5H17V8H3V5H6V6C6 6.55228 6.44772 7 7 7C7.55228 7 8 6.55228 8 6V5H12ZM3 10V17H17V10H3Z" />
</svg>
