<svg width="10" height="8" viewBox="0 0 10 8" fill="none" xmlns="http://www.w3.org/2000/svg">
<path d="M0.337402 2.55518V3.55273H1.69092V6.31689H0.337402V7.31006H4.21338V6.31689H2.92578V2.55518H0.337402ZM1.60303 1.33789C1.60303 1.43164 1.61914 1.51953 1.65137 1.60156C1.68652 1.68066 1.73486 1.74805 1.79639 1.80371C1.85791 1.8623 1.93115 1.90771 2.01611 1.93994C2.104 1.97217 2.20068 1.98828 2.30615 1.98828C2.52295 1.98828 2.69434 1.92822 2.82031 1.80811C2.94922 1.68506 3.01367 1.52832 3.01367 1.33789C3.01367 1.14746 2.94922 0.992188 2.82031 0.87207C2.69434 0.749023 2.52295 0.6875 2.30615 0.6875C2.20068 0.6875 2.104 0.703613 2.01611 0.73584C1.93115 0.768066 1.85791 0.812012 1.79639 0.867676C1.73486 0.92627 1.68652 0.996582 1.65137 1.07861C1.61914 1.15771 1.60303 1.24414 1.60303 1.33789Z" fill="#57727F"/>
<path d="M5.41748 7.31006H6.64355V3.93066C6.68457 3.86621 6.72998 3.80762 6.77979 3.75488C6.82959 3.70215 6.88525 3.65674 6.94678 3.61865C7.02295 3.56592 7.10938 3.52637 7.20605 3.5C7.30566 3.47363 7.41406 3.46045 7.53125 3.46045C7.67188 3.46045 7.79785 3.4751 7.90918 3.50439C8.02051 3.53076 8.11572 3.5791 8.19482 3.64941C8.27393 3.71973 8.33398 3.81641 8.375 3.93945C8.41895 4.05957 8.44092 4.21338 8.44092 4.40088V7.31006H9.6626V4.3833C9.6626 4.0376 9.62158 3.74463 9.53955 3.50439C9.46045 3.26123 9.34912 3.06201 9.20557 2.90674C9.05908 2.75439 8.88623 2.64307 8.68701 2.57275C8.48779 2.50244 8.26807 2.46729 8.02783 2.46729C7.84033 2.46729 7.66309 2.49365 7.49609 2.54639C7.3291 2.59912 7.17529 2.67529 7.03467 2.7749C6.95264 2.8335 6.875 2.89941 6.80176 2.97266C6.72852 3.0459 6.66113 3.12646 6.59961 3.21436L6.5249 2.55518H5.41748V7.31006Z" fill="#57727F"/>
</svg>
