<svg width="20" height="20" viewBox="0 0 20 20" fill="none" xmlns="http://www.w3.org/2000/svg">
    <path fill-rule="evenodd" clip-rule="evenodd" d="M16 2H4C2.89543 2 2 2.89543 2 4V16C2 17.1046 2.89543 18 4 18H16C17.1046 18 18 17.1046 18 16V4C18 2.89543 17.1046 2 16 2ZM4 4V16H16V4H4ZM7 6C6.44772 6 6 6.44772 6 7C6 7.55228 6.44772 8 7 8H11C11.5523 8 12 7.55228 12 7C12 6.44772 11.5523 6 11 6H7ZM6 10C6 9.44772 6.44772 9 7 9H13C13.5523 9 14 9.44772 14 10C14 10.5523 13.5523 11 13 11H7C6.44772 11 6 10.5523 6 10ZM6 13C6 12.4477 6.44772 12 7 12H11C11.5523 12 12 12.4477 12 13C12 13.5523 11.5523 14 11 14H7C6.44772 14 6 13.5523 6 13Z" fill="#B5B5BA"/>
</svg>
