<svg width="20" height="20" viewBox="0 0 20 20" fill="#ED1C1C" xmlns="http://www.w3.org/2000/svg">
<path fill-rule="evenodd" clip-rule="evenodd" d="M0 10C0 15.5228 4.47715 20 10 20C15.5228 20 20 15.5228 20 10C20 4.47715 15.5228 0 10 0C4.47715 0 0 4.47715 0 10ZM18 10C18 14.4183 14.4183 18 10 18C5.58172 18 2 14.4183 2 10C2 5.58172 5.58172 2 10 2C14.4183 2 18 5.58172 18 10ZM10 15.5C9.17157 15.5 8.5 14.8284 8.5 14C8.5 13.1716 9.17157 12.5 10 12.5C10.8284 12.5 11.5 13.1716 11.5 14C11.5 14.8284 10.8284 15.5 10 15.5ZM11.5 5.5C11.5 4.67157 10.8284 4 10 4C9.17157 4 8.5 4.67157 8.5 5.5V9.5C8.5 10.3284 9.17157 11 10 11C10.8284 11 11.5 10.3284 11.5 9.5V5.5Z" />
</svg>
