<svg width="20" height="20" viewBox="0 0 20 20" fill="#67686F" xmlns="http://www.w3.org/2000/svg">
    <path fill-rule="evenodd" clip-rule="evenodd" d="M4 18C3.44772 18 3 17.5523 3 17C3 16.4477 3.44772 16 4 16L16 16C16.5523 16 17 16.4477 17 17C17 17.5523 16.5523 18 16 18L4 18ZM11 14C11 14.5523 10.5523 15 10 15C9.44772 15 9 14.5523 9 14L9 8.00002L6.41422 8.00002C5.52331 8.00002 5.07714 6.92288 5.70711 6.29292L9.29289 2.70713C9.68342 2.31661 10.3166 2.31661 10.7071 2.70713L14.2929 6.29292C14.9229 6.92288 14.4767 8.00002 13.5858 8.00002H11V14Z"/>
</svg>
