<svg xmlns="http://www.w3.org/2000/svg" width="54" height="72" viewBox="0 0 54 72"><defs><style>.a{fill:#d0d9de;}</style></defs><path class="a" d="M52.007,13.778l-11.8-11.8A6.749,6.749,0,0,0,35.445,0H6.749A6.772,6.772,0,0,0,0,6.763V65.251A6.751,6.751,0,0,0,6.749,72H47.24A6.76,6.76,0,0,0,54,65.251V18.558A6.792,6.792,0,0,0,52.007,13.778ZM35.993,7.311l10.7,10.7h-10.7V7.311ZM47.25,65.251H6.749V6.763h22.5V21.385a3.366,3.366,0,0,0,3.375,3.374H47.25ZM22.5,36.226A11.25,11.25,0,1,0,35.774,49.5H22.5V36.226Zm4.5-4.5V45H40.274A11.254,11.254,0,0,0,27,31.726Z"/></svg>