<svg width="14" height="18" viewBox="0 0 14 18" fill="none" xmlns="http://www.w3.org/2000/svg">
<path fill-rule="evenodd" clip-rule="evenodd" d="M7 0.5C9.76142 0.5 12 2.88781 12 5.83333V6.53387C12.8548 6.69824 13.5 7.44141 13.5 8.33333V15.6667C13.5 16.6792 12.6685 17.5 11.6429 17.5H2.35714C1.33147 17.5 0.5 16.6792 0.5 15.6667V8.33333C0.5 7.44141 1.1452 6.69824 2 6.53387V5.83333C2 2.88781 4.23858 0.5 7 0.5ZM10 6.5H4V5.83333L4.00823 5.58456C4.12275 3.8598 5.41846 2.5 7 2.5L7.22389 2.50914C8.77618 2.63639 10 4.07606 10 5.83333V6.5ZM2.5 8.5V15.5007H11.5V8.5H2.5ZM6 11.5C6 10.9477 6.44772 10.5 7 10.5C7.55228 10.5 8 10.9477 8 11.5V12.5C8 13.0523 7.55228 13.5 7 13.5C6.44772 13.5 6 13.0523 6 12.5V11.5Z" fill="#B5B5BA"/>
</svg>
