<svg width="20" height="20" viewBox="0 0 20 20" fill="none" xmlns="http://www.w3.org/2000/svg">
    <path d="M6.625 5H3.375C3.139 5 2.934 5.08667 2.76 5.26C2.58667 5.434 2.5 5.639 2.5 5.875C2.5 6.111 2.58667 6.316 2.76 6.49C2.934 6.66333 3.139 6.75 3.375 6.75H6.625C6.861 6.75 7.066 6.66333 7.24 6.49C7.41333 6.316 7.5 6.111 7.5 5.875C7.5 5.639 7.41333 5.434 7.24 5.26C7.066 5.08667 6.861 5 6.625 5ZM16.625 13.25H3.375C3.139 13.25 2.934 13.3367 2.76 13.51C2.58667 13.684 2.5 13.889 2.5 14.125C2.5 14.361 2.58667 14.566 2.76 14.74C2.934 14.9133 3.139 15 3.375 15H16.625C16.861 15 17.066 14.9133 17.24 14.74C17.4133 14.566 17.5 14.361 17.5 14.125C17.5 13.889 17.4133 13.684 17.24 13.51C17.066 13.3367 16.861 13.25 16.625 13.25ZM11.625 9.125H3.375C3.139 9.125 2.934 9.21167 2.76 9.385C2.58667 9.559 2.5 9.764 2.5 10C2.5 10.236 2.58667 10.441 2.76 10.615C2.934 10.7883 3.139 10.875 3.375 10.875H11.625C11.861 10.875 12.066 10.7883 12.24 10.615C12.4133 10.441 12.5 10.236 12.5 10C12.5 9.764 12.4133 9.559 12.24 9.385C12.066 9.21167 11.861 9.125 11.625 9.125Z" fill="#1D54EC"/>
</svg>
