<svg width="20" height="20" viewBox="0 0 20 20" fill="none" xmlns="http://www.w3.org/2000/svg">
    <path d="M6.625 15H3.375C3.139 15 2.934 14.9133 2.76 14.74C2.58667 14.566 2.5 14.361 2.5 14.125C2.5 13.889 2.58667 13.684 2.76 13.51C2.934 13.3367 3.139 13.25 3.375 13.25H6.625C6.861 13.25 7.066 13.3367 7.24 13.51C7.41333 13.684 7.5 13.889 7.5 14.125C7.5 14.361 7.41333 14.566 7.24 14.74C7.066 14.9133 6.861 15 6.625 15ZM16.625 6.75H3.375C3.139 6.75 2.934 6.66333 2.76 6.49C2.58667 6.316 2.5 6.111 2.5 5.875C2.5 5.639 2.58667 5.434 2.76 5.26C2.934 5.08667 3.139 5 3.375 5H16.625C16.861 5 17.066 5.08667 17.24 5.26C17.4133 5.434 17.5 5.639 17.5 5.875C17.5 6.111 17.4133 6.316 17.24 6.49C17.066 6.66333 16.861 6.75 16.625 6.75ZM11.625 10.875H3.375C3.139 10.875 2.934 10.7883 2.76 10.615C2.58667 10.441 2.5 10.236 2.5 10C2.5 9.764 2.58667 9.559 2.76 9.385C2.934 9.21167 3.139 9.125 3.375 9.125H11.625C11.861 9.125 12.066 9.21167 12.24 9.385C12.4133 9.559 12.5 9.764 12.5 10C12.5 10.236 12.4133 10.441 12.24 10.615C12.066 10.7883 11.861 10.875 11.625 10.875Z" fill="#1D54EC"/>
</svg>
