<svg width="20" height="20" viewBox="0 0 20 20" fill="#B5B5BA" xmlns="http://www.w3.org/2000/svg">
<g clip-path="url(#clip0_9295_84253)">
<path d="M10 18C12.1217 18 14.1566 17.1571 15.6569 15.6569C17.1571 14.1566 18 12.1217 18 10C18 7.87827 17.1571 5.84344 15.6569 4.34315C14.1566 2.84285 12.1217 2 10 2C7.87827 2 5.84344 2.84285 4.34315 4.34315C2.84285 5.84344 2 7.87827 2 10C2 12.1217 2.84285 14.1566 4.34315 15.6569C5.84344 17.1571 7.87827 18 10 18ZM10 0C15.523 0 20 4.477 20 10C20 15.523 15.523 20 10 20C4.477 20 0 15.523 0 10C0 4.477 4.477 0 10 0ZM14.778 6.293C14.5905 6.10553 14.3362 6.00021 14.071 6.00021C13.8058 6.00021 13.5515 6.10553 13.364 6.293L9.121 10.536L7.707 9.12C7.51936 8.93249 7.26492 8.8272 6.99965 8.8273C6.73438 8.82739 6.48001 8.93286 6.2925 9.1205C6.10499 9.30814 5.9997 9.56258 5.9998 9.82785C5.99989 10.0931 6.10536 10.3475 6.293 10.535L9.121 13.363L14.778 7.706C14.9655 7.51847 15.0708 7.26416 15.0708 6.999C15.0708 6.73384 14.9655 6.47953 14.778 6.292V6.293Z"/>
</g>
<defs>
<clipPath id="clip0_9295_84253">
<rect width="20" height="20" fill="white"/>
</clipPath>
</defs>
</svg>
