<svg xmlns="http://www.w3.org/2000/svg" xmlns:xlink="http://www.w3.org/1999/xlink" width="220" height="148" viewBox="0 0 220 148"><defs><style>.a,.b,.c{fill:#bdcad0;}.a{clip-rule:evenodd;}.c{fill-rule:evenodd;}.d{clip-path:url(#a);}.e{isolation:isolate;}.f{clip-path:url(#b);}.g{clip-path:url(#c);}</style><clipPath id="a"><path class="a" d="M49.179-16V27.714H24.589V22.25H43.712V-10.536H24.589V-16ZM16.393-6.437l0,9.56,21.86,0V8.589l-21.86,0,0,9.565L0,5.857Z" transform="translate(0 16)"/></clipPath><clipPath id="b"><rect class="b" width="79" height="71" transform="translate(0.324 -0.15)"/></clipPath><clipPath id="c"><path class="b" d="M0,27.714H49.179V-16H0Z" transform="translate(0 16)"/></clipPath></defs><g transform="translate(-12767 420)"><path class="b" d="M793-565a4,4,0,0,1,4,4v6a4,4,0,0,1-4,4H581a4,4,0,0,1-4-4v-6a4,4,0,0,1,4-4Zm0,3H581a1,1,0,0,0-1,1v6a1,1,0,0,0,1,1H793a1,1,0,0,0,1-1v-6A1,1,0,0,0,793-562Z" transform="translate(12190 279)"/><path class="c" d="M661-565h52v1a6,6,0,0,1-6,6H667a6,6,0,0,1-6-6v-1Z" transform="translate(12190 279)"/><path class="b" d="M777-699a6,6,0,0,1,6,6v117a6,6,0,0,1-6,6H597a6,6,0,0,1-6-6V-693a6,6,0,0,1,6-6Zm0,3H597a3,3,0,0,0-3,3v117a3,3,0,0,0,3,3H777a3,3,0,0,0,3-3V-693A3,3,0,0,0,777-696Z" transform="translate(12190 279)"/><path class="b" d="M759-684a6,6,0,0,1,6,6v89a6,6,0,0,1-6,6H615a6,6,0,0,1-6-6v-89a6,6,0,0,1,6-6Zm0,3H615a3,3,0,0,0-3,3v89a3,3,0,0,0,3,3H759a3,3,0,0,0,3-3v-89A3,3,0,0,0,759-681Z" transform="translate(12190 279)"/><path class="b" d="M156,10H0V6A6.007,6.007,0,0,1,6,0H150a6.007,6.007,0,0,1,6,6v4ZM19,3a2,2,0,1,0,2,2A2,2,0,0,0,19,3ZM13,3a2,2,0,1,0,2,2A2,2,0,0,0,13,3ZM7,3A2,2,0,1,0,9,5,2,2,0,0,0,7,3Z" transform="translate(12799 -405)"/><g transform="translate(12851 -360.357)"><g class="d" transform="translate(0 -16)"><g class="e" transform="translate(-16.824 -13.516)"><g class="f" transform="translate(0 0)"><g class="g" transform="translate(16.824 13.516)"><path class="b" d="M-5-21H71.5V50.036H-5Z" transform="translate(-8.661 7.339)"/><path class="b" d="M-5-23H76.964V58.964H-5Z" transform="translate(-8.661 3.875)"/></g></g></g></g></g></g></svg>