<svg xmlns="http://www.w3.org/2000/svg" width="220" height="148" viewBox="0 0 220 148"><defs><style>.a,.b{fill:#bdcad0;}.b{fill-rule:evenodd;}</style></defs><g transform="translate(-12767 420)"><path class="a" d="M793-565a4,4,0,0,1,4,4v6a4,4,0,0,1-4,4H581a4,4,0,0,1-4-4v-6a4,4,0,0,1,4-4Zm0,3H581a1,1,0,0,0-1,1v6a1,1,0,0,0,1,1H793a1,1,0,0,0,1-1v-6A1,1,0,0,0,793-562Z" transform="translate(12190 279)"/><path class="b" d="M661-565h52v1a6,6,0,0,1-6,6H667a6,6,0,0,1-6-6v-1Z" transform="translate(12190 279)"/><path class="a" d="M777-699a6,6,0,0,1,6,6v117a6,6,0,0,1-6,6H597a6,6,0,0,1-6-6V-693a6,6,0,0,1,6-6Zm0,3H597a3,3,0,0,0-3,3v117a3,3,0,0,0,3,3H777a3,3,0,0,0,3-3V-693A3,3,0,0,0,777-696Z" transform="translate(12190 279)"/><path class="a" d="M759-684a6,6,0,0,1,6,6v89a6,6,0,0,1-6,6H615a6,6,0,0,1-6-6v-89a6,6,0,0,1,6-6Zm0,3H615a3,3,0,0,0-3,3v89a3,3,0,0,0,3,3H759a3,3,0,0,0,3-3v-89A3,3,0,0,0,759-681Z" transform="translate(12190 279)"/><path class="a" d="M611-595H763v-3H611Z" transform="translate(12190 279)"/><path class="a" d="M12,51V4a4,4,0,0,1,8,0V35c2.208,0,4-1.327,4-2.963V20a4,4,0,1,1,8,0V31A12,12,0,0,1,20,43v8a4,4,0,0,1-8,0ZM0,21V10a4,4,0,0,1,8,0V22.036C8,23.672,9.792,25,12,25v8A12,12,0,0,1,0,21Z" transform="translate(12861 -366)"/><path class="a" d="M156,10H0V6A6.007,6.007,0,0,1,6,0H150a6.007,6.007,0,0,1,6,6v4ZM19,3a2,2,0,1,0,2,2A2,2,0,0,0,19,3ZM13,3a2,2,0,1,0,2,2A2,2,0,0,0,13,3ZM7,3A2,2,0,1,0,9,5,2,2,0,0,0,7,3Z" transform="translate(12799 -405)"/></g></svg>