<svg xmlns="http://www.w3.org/2000/svg" width="48.226" height="24.038" viewBox="0 0 48.226 24.038">
	<defs>
		<style>.nav-logo-a{fill:#fff;}</style>
	</defs>
	<g transform="translate(-51.882 -377.394)">
		<path class="nav-logo-a"
					d="M88.089,388.039a1.374,1.374,0,1,1-.007,0h.007m0-2.06a3.434,3.434,0,1,0,3.434,3.434,3.434,3.434,0,0,0-3.434-3.434Z"/>
		<path class="nav-logo-a"
					d="M88.089,396.624a1.374,1.374,0,1,1-.007,0h.007m0-2.06A3.434,3.434,0,1,0,91.523,398a3.434,3.434,0,0,0-3.434-3.434Z"/>
		<path class="nav-logo-a"
					d="M96.674,388.039a1.374,1.374,0,1,1-.007,0h.007m0-2.06a3.434,3.434,0,1,0,3.434,3.434h0a3.445,3.445,0,0,0-3.437-3.434Z"/>
		<path class="nav-logo-a" d="M79.5,377.394a3.434,3.434,0,1,1-3.434,3.434,3.435,3.435,0,0,1,3.434-3.434Z"/>
		<path class="nav-logo-a" d="M79.5,385.979a3.434,3.434,0,1,1-3.434,3.434,3.435,3.435,0,0,1,3.434-3.434Z"/>
		<path class="nav-logo-a" d="M79.5,394.564A3.434,3.434,0,1,1,76.066,398a3.435,3.435,0,0,1,3.434-3.434Z"/>
		<path class="nav-logo-a" d="M88.085,377.394a3.434,3.434,0,1,1-3.434,3.434,3.435,3.435,0,0,1,3.434-3.434Z"/>
		<path class="nav-logo-a" d="M70.915,377.394a3.434,3.434,0,1,1-3.434,3.434,3.435,3.435,0,0,1,3.434-3.434Z"/>
		<path class="nav-logo-a" d="M51.882,385.979H70.915a3.434,3.434,0,0,1,0,6.868H51.882Z"/>
		<path class="nav-logo-a"
					d="M53.745,377.394h8.5a3.493,3.493,0,0,1,3.522,3.316,3.434,3.434,0,0,1-3.314,3.55c-.039,0-.079,0-.118,0H51.882V377.4Z"/>
		<path class="nav-logo-a" d="M70.911,394.564a3.434,3.434,0,0,1,0,6.868H51.882v-6.868Z"/>
	</g>
</svg>
