<svg width="73" height="60" viewBox="0 0 73 60" fill="none" xmlns="http://www.w3.org/2000/svg">
<path fill-rule="evenodd" clip-rule="evenodd" d="M57.6055 57.6768H72.0247V0H57.6055V57.6768Z" fill="url(#paint0_linear_566_1695)"/>
<mask id="mask0_566_1695" style="mask-type:alpha" maskUnits="userSpaceOnUse" x="0" y="0" width="60" height="61">
<path d="M8.69531 8.89394C2.8979 14.6364 0 21.7191 0 30.1405C0 38.5629 2.8979 45.6444 8.69531 51.3868C14.4914 57.1293 21.5464 60.0003 29.8598 60.0003C38.1719 60.0003 45.2268 57.1293 51.0243 51.3868C56.8204 45.6444 59.7196 38.5629 59.7196 30.1405C59.7196 21.7191 56.8204 14.6364 51.0243 8.89394C45.2268 3.15182 38.1719 0.280762 29.8598 0.280762C21.5464 0.280762 14.4914 3.15182 8.69531 8.89394ZM17.924 42.4454C14.7247 39.2743 13.1249 35.1726 13.1249 30.1405C13.1249 25.1095 14.7247 21.0081 17.924 17.8353C21.1236 14.6645 25.102 13.0778 29.8598 13.0778C34.6179 13.0778 38.5963 14.6645 41.7956 17.8353C44.9948 21.0081 46.5946 25.1095 46.5946 30.1405C46.5946 35.1726 44.9948 39.2743 41.7956 42.4454C38.5963 45.6179 34.6179 47.2033 29.8598 47.2033C25.102 47.2033 21.1236 45.6179 17.924 42.4454Z" fill="white"/>
</mask>
<g mask="url(#mask0_566_1695)">
<path fill-rule="evenodd" clip-rule="evenodd" d="M8.69531 8.89345C2.8979 14.6359 0 21.7186 0 30.14C0 38.5624 2.8979 45.6439 8.69531 51.3863C14.4914 57.1288 21.5464 59.9998 29.8598 59.9998C38.1719 59.9998 45.2268 57.1288 51.0243 51.3863C56.8204 45.6439 59.7196 38.5624 59.7196 30.14C59.7196 21.7186 56.8204 14.6359 51.0243 8.89345C45.2268 3.15133 38.1719 0.280273 29.8598 0.280273C21.5464 0.280273 14.4914 3.15133 8.69531 8.89345ZM17.924 42.445C14.7247 39.2738 13.1249 35.1721 13.1249 30.14C13.1249 25.109 14.7247 21.0076 17.924 17.8348C21.1236 14.664 25.102 13.0773 29.8598 13.0773C34.6179 13.0773 38.5963 14.664 41.7956 17.8348C44.9948 21.0076 46.5946 25.109 46.5946 30.14C46.5946 35.1721 44.9948 39.2738 41.7956 42.445C38.5963 45.6174 34.6179 47.2028 29.8598 47.2028C25.102 47.2028 21.1236 45.6174 17.924 42.445Z" fill="url(#paint1_linear_566_1695)"/>
</g>
<defs>
<linearGradient id="paint0_linear_566_1695" x1="61.7051" y1="-7.33534" x2="88.4678" y2="12.1199" gradientUnits="userSpaceOnUse">
<stop stop-color="#6451A0"/>
<stop offset="1" stop-color="#D4006D"/>
</linearGradient>
<linearGradient id="paint1_linear_566_1695" x1="6.1756" y1="11.3093" x2="69.1851" y2="61.4068" gradientUnits="userSpaceOnUse">
<stop stop-color="#6451A0"/>
<stop offset="1" stop-color="#D4006D"/>
</linearGradient>
</defs>
</svg>
