<svg
	xmlns="http://www.w3.org/2000/svg"
	xmlns:xlink="http://www.w3.org/1999/xlink" width="58" height="31" viewBox="0 0 58 31">
	<defs>
		<style>.a{fill:none;stroke:#707070;}.b{clip-path:url(#a);}</style>
		<clipPath id="a">
			<rect class="a" width="58" height="31" transform="translate(14.875 18.924)"/>
		</clipPath>
	</defs>
	<g class="b" transform="translate(-14.875 -18.924)">
		<g transform="translate(0 19.522)">
			<g transform="translate(53.577 10.715)">
				<path d="M114.636,64.477a2.363,2.363,0,1,1-2.363,2.364,2.366,2.366,0,0,1,2.363-2.364m0-1.923a4.286,4.286,0,1,0,4.286,4.287,4.286,4.286,0,0,0-4.286-4.287Z" transform="translate(-110.35 -62.554)"/>
				<path d="M114.636,86.5a2.363,2.363,0,1,1-2.363,2.363,2.366,2.366,0,0,1,2.363-2.363m0-1.923a4.286,4.286,0,1,0,4.286,4.286,4.286,4.286,0,0,0-4.286-4.286Z" transform="translate(-110.35 -73.866)"/>
				<path d="M136.664,64.477a2.363,2.363,0,1,1-2.363,2.364,2.366,2.366,0,0,1,2.363-2.364m0-1.923a4.286,4.286,0,1,0,4.286,4.287,4.286,4.286,0,0,0-4.286-4.287Z" transform="translate(-121.662 -62.554)"/>
			</g>
			<g transform="translate(32.146)">
				<path d="M92.608,40.527h0a4.286,4.286,0,0,1,4.286,4.286h0A4.286,4.286,0,0,1,92.608,49.1h0a4.286,4.286,0,0,1-4.286-4.286h0A4.286,4.286,0,0,1,92.608,40.527Z" transform="translate(-77.606 -40.527)"/>
				<path d="M92.608,62.554h0a4.286,4.286,0,0,1,4.286,4.287h0a4.286,4.286,0,0,1-4.286,4.286h0a4.286,4.286,0,0,1-4.286-4.286h0A4.286,4.286,0,0,1,92.608,62.554Z" transform="translate(-77.606 -51.839)"/>
				<path d="M92.608,84.582h0a4.286,4.286,0,0,1,4.286,4.286h0a4.286,4.286,0,0,1-4.286,4.287h0a4.286,4.286,0,0,1-4.286-4.287h0A4.286,4.286,0,0,1,92.608,84.582Z" transform="translate(-77.606 -63.151)"/>
				<path d="M114.636,40.527h0a4.286,4.286,0,0,1,4.286,4.286h0a4.286,4.286,0,0,1-4.286,4.286h0a4.286,4.286,0,0,1-4.286-4.286h0A4.286,4.286,0,0,1,114.636,40.527Z" transform="translate(-88.919 -40.527)"/>
				<path d="M70.58,40.527h0a4.286,4.286,0,0,1,4.287,4.286h0A4.286,4.286,0,0,1,70.58,49.1h0a4.286,4.286,0,0,1-4.286-4.286h0A4.286,4.286,0,0,1,70.58,40.527Z" transform="translate(-66.294 -40.527)"/>
			</g>
			<path d="M4.5,62.554H36.643a4.286,4.286,0,0,1,4.287,4.287h0a4.286,4.286,0,0,1-4.287,4.286H4.5A4.286,4.286,0,0,1,.211,66.841h0A4.286,4.286,0,0,1,4.5,62.554Z" transform="translate(-0.211 -51.839)"/>
			<path d="M26.525,40.527H37.241a4.286,4.286,0,0,1,4.286,4.286h0A4.286,4.286,0,0,1,37.241,49.1H26.525a4.286,4.286,0,0,1-4.286-4.286h0A4.286,4.286,0,0,1,26.525,40.527Z" transform="translate(-11.523 -40.527)"/>
			<path d="M26.525,84.582H47.956a4.286,4.286,0,0,1,4.287,4.286h0a4.286,4.286,0,0,1-4.287,4.287H26.525a4.286,4.286,0,0,1-4.286-4.287h0A4.286,4.286,0,0,1,26.525,84.582Z" transform="translate(-11.523 -63.151)"/>
		</g>
	</g>
</svg>