<svg width="28" height="28" viewBox="0 0 28 28" fill="none" xmlns="http://www.w3.org/2000/svg">
<g clip-path="url(#clip0_2624_12540)">
<path d="M18.6693 18.6667L14.0026 14L9.33594 18.6667" stroke="#8C76C6" stroke-width="3" stroke-linecap="round" stroke-linejoin="round"/>
<path d="M14 14V24.5" stroke="#8C76C6" stroke-width="3" stroke-linecap="round" stroke-linejoin="round"/>
<path d="M23.7919 21.4521C24.9298 20.8318 25.8288 19.8502 26.3468 18.6622C26.8649 17.4742 26.9725 16.1476 26.6529 14.8916C26.3332 13.6356 25.6044 12.5219 24.5814 11.7262C23.5584 10.9304 22.2996 10.498 21.0036 10.4971H19.5336C19.1805 9.13125 18.5223 7.86319 17.6086 6.78829C16.6948 5.71339 15.5493 4.85962 14.2581 4.29117C12.9669 3.72272 11.5636 3.45438 10.1538 3.50633C8.74391 3.55827 7.36419 3.92915 6.11832 4.59108C4.87245 5.253 3.79285 6.18875 2.96067 7.32798C2.1285 8.4672 1.56542 9.78026 1.31376 11.1684C1.0621 12.5566 1.12841 13.9838 1.5077 15.3426C1.88699 16.7015 2.5694 17.9566 3.50362 19.0138" stroke="#8C76C6" stroke-width="3" stroke-linecap="round" stroke-linejoin="round"/>
<path d="M18.6693 18.6667L14.0026 14L9.33594 18.6667" stroke="#8C76C6" stroke-width="3" stroke-linecap="round" stroke-linejoin="round"/>
</g>
<defs>
<clipPath id="clip0_2624_12540">
<rect width="28" height="28" fill="white"/>
</clipPath>
</defs>
</svg>
