<svg width="32" height="32" viewBox="0 0 32 32" fill="none" xmlns="http://www.w3.org/2000/svg">
<path fill-rule="evenodd" clip-rule="evenodd" d="M1.60156 16.0001C1.60156 23.953 8.04866 30.4001 16.0016 30.4001C23.9545 30.4001 30.4016 23.953 30.4016 16.0001C30.4016 8.0472 23.9545 1.6001 16.0016 1.6001C8.04866 1.6001 1.60156 8.0472 1.60156 16.0001ZM27.2016 16.0001C27.2016 22.1857 22.1872 27.2001 16.0016 27.2001C9.81597 27.2001 4.80156 22.1857 4.80156 16.0001C4.80156 9.81451 9.81597 4.8001 16.0016 4.8001C22.1872 4.8001 27.2016 9.81451 27.2016 16.0001Z" fill="#8C76C6"/>
<rect x="11.1992" y="11.2002" width="3.2" height="9.6" fill="#8C76C6"/>
<rect x="17.6016" y="11.2002" width="3.2" height="9.6" fill="#8C76C6"/>
</svg>
