<svg width="32" height="32" viewBox="0 0 32 32" fill="none" xmlns="http://www.w3.org/2000/svg">
<path fill-rule="evenodd" clip-rule="evenodd" d="M16.0016 30.4001C8.04866 30.4001 1.60156 23.953 1.60156 16.0001C1.60156 8.0472 8.04866 1.6001 16.0016 1.6001C23.9545 1.6001 30.4016 8.0472 30.4016 16.0001C30.4016 23.953 23.9545 30.4001 16.0016 30.4001ZM16.0016 27.2001C22.1872 27.2001 27.2016 22.1857 27.2016 16.0001C27.2016 9.81451 22.1872 4.8001 16.0016 4.8001C9.81597 4.8001 4.80156 9.81451 4.80156 16.0001C4.80156 22.1857 9.81597 27.2001 16.0016 27.2001ZM12.8016 22.4001L20.7529 16.0001L12.8016 9.6001V22.4001Z" fill="#8C76C6"/>
</svg>
