<svg width="32" height="18" viewBox="0 0 32 18" fill="none" xmlns="http://www.w3.org/2000/svg">
<path fill-rule="evenodd" clip-rule="evenodd" d="M17.1104 17.9679L26.6389 17.9936C26.875 17.9986 27.0522 18 27.1942 18C27.3528 18 27.4668 17.9982 27.5684 17.9964L27.7909 17.9937C30.3907 17.9937 32 15.3121 32 12.8271C32 10.6159 30.5622 8.71614 28.5836 8.21112C28.6311 7.9295 28.6551 7.64632 28.6551 7.36369C28.6551 4.67861 26.6045 2.49414 24.0836 2.49414C22.8624 2.49414 21.7056 3.01934 20.8594 3.91683C20.3737 1.68617 18.2169 0 15.6377 0C12.7019 0 10.3136 2.18447 10.3136 4.86955C10.3136 5.03094 10.3221 5.19151 10.3393 5.35086C9.94985 5.22187 9.53741 5.15531 9.11559 5.15531C7.28696 5.15531 5.77283 6.40513 5.54786 8.01665C5.22559 7.93779 4.89891 7.89812 4.57141 7.89812C2.05073 7.89812 0 10.1492 0 12.9161C0 15.6831 2.05073 17.9341 4.57033 17.9341L14.8897 17.9619L15 13H11L16 7L21 13H17L17.1104 17.9679Z" fill="#67686F"/>
</svg>
