<svg width="28" height="28" viewBox="0 0 28 28" fill="none" xmlns="http://www.w3.org/2000/svg">
<path fill-rule="evenodd" clip-rule="evenodd" d="M5.20312 25.2031C4.65084 25.2031 4.20312 24.7554 4.20312 24.2031V23.4031C4.20313 22.8508 4.65084 22.4031 5.20313 22.4031L22.8031 22.4031C23.3554 22.4031 23.8031 22.8508 23.8031 23.4031V24.2031C23.8031 24.7554 23.3554 25.2031 22.8031 25.2031L5.20312 25.2031ZM15.4031 19.6032C15.4031 20.3764 14.7763 21.0032 14.0031 21.0032C13.2299 21.0032 12.6031 20.3764 12.6031 19.6032L12.6031 11.2032H8.01734C7.12644 11.2032 6.68027 10.126 7.31023 9.49605L13.296 3.51026C13.6865 3.11974 14.3197 3.11974 14.7102 3.51026L20.696 9.49605C21.326 10.126 20.8798 11.2032 19.9889 11.2032H15.4031L15.4031 19.6032Z" fill="#8C76C6"/>
</svg>
