<svg width="48" height="32" viewBox="0 0 48 32" fill="none" xmlns="http://www.w3.org/2000/svg">
<path fill-rule="evenodd" clip-rule="evenodd" d="M34.6389 24.9936L12.5703 24.9341C10.0507 24.9341 8 22.6831 8 19.9161C8 17.1492 10.0507 14.8981 12.5714 14.8981C12.8989 14.8981 13.2256 14.9378 13.5479 15.0166C13.7728 13.4051 15.287 12.1553 17.1156 12.1553C17.5374 12.1553 17.9498 12.2219 18.3393 12.3509C18.3221 12.1915 18.3136 12.0309 18.3136 11.8695C18.3136 9.18447 20.7019 7 23.6377 7C26.2169 7 28.3737 8.68617 28.8594 10.9168C29.7056 10.0193 30.8624 9.49414 32.0836 9.49414C34.6045 9.49414 36.6551 11.6786 36.6551 14.3637C36.6551 14.6463 36.6311 14.9295 36.5836 15.2111C38.5622 15.7161 40 17.6159 40 19.8271C40 22.3121 38.3907 24.9937 35.7909 24.9937L35.5684 24.9964C35.4668 24.9982 35.3528 25 35.1942 25C35.0522 25 34.875 24.9986 34.6389 24.9936Z" fill="#54B558"/>
<path fill-rule="evenodd" clip-rule="evenodd" d="M19.6875 17.4375C19.3078 17.8172 19.3078 18.4328 19.6875 18.8125L23.125 22.25L29.3125 16.0625C29.6922 15.6828 29.6922 15.0672 29.3125 14.6875V14.6875C28.9328 14.3078 28.3172 14.3078 27.9375 14.6875L23.125 19.5L21.0625 17.4375C20.6828 17.0578 20.0672 17.0578 19.6875 17.4375V17.4375Z" fill="#FEF1F1"/>
</svg>
