<svg width="28" height="28" viewBox="0 0 28 28" fill="none" xmlns="http://www.w3.org/2000/svg">
<path fill-rule="evenodd" clip-rule="evenodd" d="M6.30313 11.1984H7.70313C8.73952 11.1984 9.6444 11.7615 10.1285 12.5984H7.70313C6.92993 12.5984 6.30313 13.2252 6.30313 13.9984C6.30313 14.7716 6.92993 15.3984 7.70313 15.3984H10.1285C9.6444 16.2354 8.73952 16.7984 7.70313 16.7984H6.30313C4.75673 16.7984 3.50313 15.5448 3.50313 13.9984C3.50313 12.452 4.75673 11.1984 6.30313 11.1984ZM13.1267 15.3984C12.505 17.8138 10.3125 19.5984 7.70313 19.5984H6.30313C3.21033 19.5984 0.703125 17.0912 0.703125 13.9984C0.703125 10.9056 3.21033 8.39844 6.30313 8.39844H7.70313C10.3125 8.39844 12.505 10.1831 13.1267 12.5984H14.8795C15.5012 10.1831 17.6938 8.39844 20.3031 8.39844H21.7031C24.7959 8.39844 27.3031 10.9056 27.3031 13.9984C27.3031 17.0912 24.7959 19.5984 21.7031 19.5984H20.3031C17.6937 19.5984 15.5012 17.8138 14.8795 15.3984H13.1267ZM21.7031 11.1984H20.3031C19.2667 11.1984 18.3618 11.7615 17.8777 12.5984H20.3031C21.0763 12.5984 21.7031 13.2252 21.7031 13.9984C21.7031 14.7716 21.0763 15.3984 20.3031 15.3984H17.8777C18.3618 16.2354 19.2667 16.7984 20.3031 16.7984H21.7031C23.2495 16.7984 24.5031 15.5448 24.5031 13.9984C24.5031 12.452 23.2495 11.1984 21.7031 11.1984Z" fill="#8C76C6"/>
</svg>
