<svg xmlns="http://www.w3.org/2000/svg" fill="#aaabae" width="16" height="13.105" viewBox="0 0 16 13.105"><defs><style>.a{}</style></defs><path class="a" d="M11.594-14.01l-.493.853h0l-.58,1H6.493v4.638H1.855V-2.88H6.132L6.021-1.025H0V-9.366L4.633-14.01ZM12.985-3.435v2.41H11.15l.718-.474Zm-1.2-7.188,2.41,1.391L10.48-2.805l-2.6,1.714L8.07-4.2ZM5.4-12.155,2.627-9.373h0L1.855-8.6l.772-.774H4.638v-2.016Zm9.9-1.788a1.391,1.391,0,0,1,.509,1.9l-.7,1.2-2.41-1.391.7-1.2A1.391,1.391,0,0,1,15.3-13.943Z" transform="translate(0 14.13)"/></svg>