<svg xmlns="http://www.w3.org/2000/svg" width="22.103" height="22.098" viewBox="0 0 22.103 22.098">
	<g transform="translate(2.981 2.58)">
		<ellipse cx="1.827" cy="1.827" rx="1.827" ry="1.827" transform="translate(9.062 5.311)"/>
		<ellipse cx="2.869" cy="2.869" rx="2.869" ry="2.869" transform="translate(4.611 9.833)"/>
		<ellipse cx="2.433" cy="2.433" rx="2.433" ry="2.433"/>
	</g>
	<g transform="translate(0 0)">
		<path opacity="0.4"
					d="M110.772,8.45l0,0A11.211,11.211,0,0,0,107.654,8h-.009a10.99,10.99,0,0,0-6.545,2.147,3.055,3.055,0,0,1,.909-.143,3,3,0,0,1,1.354.321c.165-.08.334-.16.5-.232a9.549,9.549,0,0,1,3.377-.753l2.107.116-2.272,1.657a.359.359,0,0,0-.143.285v.891a.357.357,0,0,0,.356.356h.713a.357.357,0,0,0,.356-.356v-.356l.713-.713H110a.5.5,0,0,1,.356.86l-1.194,1.194a.555.555,0,0,1-.2.12l-1.782.593a.354.354,0,0,0-.245.339,1.11,1.11,0,0,1-.321.78l-.9.9a.715.715,0,0,0-.209.5v1.127a.715.715,0,0,0,.713.713h.985a.709.709,0,0,0,.637-.392l.187-.37a2.44,2.44,0,0,1,4.375-1.354.718.718,0,0,0,.236-.53v-.2a.715.715,0,0,1,.713-.713h1.635a.506.506,0,0,1,.5.5v.419a.506.506,0,0,1-.5.5h-1.426a.506.506,0,0,0-.356.147l-.419.419a.472.472,0,0,0-.045.053,2.41,2.41,0,0,1,.16.744.5.5,0,0,0,.241.062h.713a.506.506,0,0,1,.356.147l.419.419a.506.506,0,0,1,.147.356v.388l-.557.557a.531.531,0,0,0,0,.744l1.426,1.452a.7.7,0,0,0,.508.214h2.165A11.046,11.046,0,0,0,110.772,8.45Z"
					transform="translate(-96.596 -8)"/>
		<path opacity="0.4"
					d="M18.659,106.9h0l-.775-.775a1.423,1.423,0,0,0-1.007-.419h-.815l-1.925-1.653a2.05,2.05,0,0,0-1.319-.486H11.606a3.685,3.685,0,0,1-.5,7.128h.659a.715.715,0,0,1,.713.713v1.016c-.321.027-1.4.125-1.43.125A9.722,9.722,0,0,1,2.1,99.059a9.515,9.515,0,0,1,.544-1.087A3,3,0,0,1,2.406,96.8a3.045,3.045,0,0,1,.209-1.1,11.048,11.048,0,0,0,9.864,18.1h.027a11.025,11.025,0,0,0,7.1-3.961v-.873A2.775,2.775,0,0,0,18.659,106.9Z"
					transform="translate(0 -91.793)"/>
		<path opacity="0.4"
					d="M176.379,112.4h-.018a3.139,3.139,0,0,1,.022.361,3,3,0,0,1-.584,1.778h.16a.506.506,0,0,0,.356-.147l.419-.419a.506.506,0,0,0,.147-.356V112.9A.506.506,0,0,0,176.379,112.4Z"
					transform="translate(-167.968 -107.749)"/>
	</g>
</svg>
