<svg width="20" height="20" viewBox="0 0 20 20" fill="#B5B5BA" xmlns="http://www.w3.org/2000/svg">
<path fill-rule="evenodd" clip-rule="evenodd" d="M3 8C2.44772 8 2 7.55228 2 7V3C2 2.44772 2.44772 2 3 2H7C7.55228 2 8 2.44772 8 3C8 3.55228 7.55228 4 7 4H4V7C4 7.55228 3.55228 8 3 8ZM2 13C2 12.4477 2.44772 12 3 12C3.55228 12 4 12.4477 4 13V16H7C7.55228 16 8 16.4477 8 17C8 17.5523 7.55228 18 7 18H3C2.44772 18 2 17.5523 2 17V13ZM17 8C17.5523 8 18 7.55228 18 7V2H13C12.4477 2 12 2.44772 12 3C12 3.55228 12.4477 4 13 4H14.5858L7.75736 10.8284C7.36684 11.219 7.36684 11.8521 7.75736 12.2426C8.14788 12.6332 8.78105 12.6332 9.17157 12.2426L16 5.41421V7C16 7.55228 16.4477 8 17 8ZM17 12C17.5523 12 18 12.4477 18 13V17C18 17.5523 17.5523 18 17 18H13C12.4477 18 12 17.5523 12 17C12 16.4477 12.4477 16 13 16H16V13C16 12.4477 16.4477 12 17 12Z" />
</svg>
