<svg width="20" height="20" viewBox="0 0 20 20" fill="#B5B5BA" xmlns="http://www.w3.org/2000/svg">
	<path fill-rule="evenodd" clip-rule="evenodd" d="M3.84315 6.20711L9.5 11.864L15.1569 6.20711C15.5474 5.81658 15.5474 5.18342 15.1569 4.79289C14.7663 4.40237 14.1332 4.40237 13.7426 4.79289L9.5 9.03553L5.25736 4.79289C4.86684 4.40237 4.23367 4.40237 3.84315 4.79289C3.45262 5.18342 3.45262 5.81658 3.84315 6.20711ZM4 14C3.44772 14 3 14.4477 3 15C3 15.5523 3.44772 16 4 16H15C15.5523 16 16 15.5523 16 15C16 14.4477 15.5523 14 15 14H4Z" />
</svg>
