<svg version="1.0" xmlns="http://www.w3.org/2000/svg"
 width="20" height="20" viewBox="0 0 45.000000 45.000000"
 preserveAspectRatio="xMidYMid meet" fill="#000000">

<g transform="translate(0.000000,45.000000) scale(0.100000,-0.100000)" stroke="none">
<path d="M186 419 c-34 -27 -36 -81 -4 -103 73 -51 151 48 82 103 -15 12 -32
21 -39 21 -7 0 -24 -9 -39 -21z"/>
<path d="M66 351 c-60 -67 -57 -185 6 -257 116 -132 326 -71 354 103 8 49 -10
115 -40 150 -20 23 -26 25 -40 14 -14 -12 -14 -16 6 -43 29 -42 35 -115 13
-162 -49 -102 -201 -115 -268 -22 -31 44 -31 138 0 182 17 23 19 34 11 42 -16
16 -22 15 -42 -7z"/>
</g>
</svg>
